<mxfile host="app.diagrams.net" agent="Mozilla/5.0 (X11; Linux x86_64) AppleWebKit/537.36 (KHTML, like Gecko) Chrome/133.0.0.0 Safari/537.36" version="26.2.6">
  <diagram name="Page-1" id="kJdv7-yGnO9rXfNPzpO_">
    <mxGraphModel dx="2420" dy="1427" grid="1" gridSize="10" guides="1" tooltips="1" connect="1" arrows="1" fold="1" page="1" pageScale="1" pageWidth="850" pageHeight="1100" math="0" shadow="0">
      <root>
        <mxCell id="0" />
        <mxCell id="1" parent="0" />
        <mxCell id="7DsPn4_nwZbXOxPFbN1_-56" value="" style="rounded=1;whiteSpace=wrap;html=1;dashed=1;fillColor=none;" vertex="1" parent="1">
          <mxGeometry x="815" y="660" width="230" height="230" as="geometry" />
        </mxCell>
        <mxCell id="7DsPn4_nwZbXOxPFbN1_-27" value="" style="rounded=1;whiteSpace=wrap;html=1;dashed=1;fillColor=none;" vertex="1" parent="1">
          <mxGeometry x="490" y="440" width="220" height="240" as="geometry" />
        </mxCell>
        <mxCell id="tc9lPHJW7ty5cSRw3GDh-1" value="" style="rounded=1;whiteSpace=wrap;html=1;" parent="1" vertex="1">
          <mxGeometry x="330" y="250" width="60" height="60" as="geometry" />
        </mxCell>
        <mxCell id="tc9lPHJW7ty5cSRw3GDh-2" value="" style="rounded=1;whiteSpace=wrap;html=1;" parent="1" vertex="1">
          <mxGeometry x="250" y="103" width="50" height="50" as="geometry" />
        </mxCell>
        <mxCell id="tc9lPHJW7ty5cSRw3GDh-3" value="property updated&lt;div&gt;prj1,prj2&lt;/div&gt;" style="rounded=1;whiteSpace=wrap;html=1;" parent="1" vertex="1">
          <mxGeometry x="120" y="98" width="60" height="60" as="geometry" />
        </mxCell>
        <mxCell id="tc9lPHJW7ty5cSRw3GDh-4" value="env state offset HEAD" style="rounded=1;whiteSpace=wrap;html=1;" parent="1" vertex="1">
          <mxGeometry x="332.5" y="253" width="57.5" height="60" as="geometry" />
        </mxCell>
        <mxCell id="tc9lPHJW7ty5cSRw3GDh-5" value="" style="endArrow=classic;html=1;rounded=0;entryX=0.5;entryY=1;entryDx=0;entryDy=0;exitX=0.25;exitY=0;exitDx=0;exitDy=0;strokeWidth=2;dashed=1;" parent="1" source="tc9lPHJW7ty5cSRw3GDh-1" target="tc9lPHJW7ty5cSRw3GDh-2" edge="1">
          <mxGeometry width="50" height="50" relative="1" as="geometry">
            <mxPoint x="270" y="300" as="sourcePoint" />
            <mxPoint x="320" y="250" as="targetPoint" />
            <Array as="points">
              <mxPoint x="280" y="180" />
            </Array>
          </mxGeometry>
        </mxCell>
        <mxCell id="tc9lPHJW7ty5cSRw3GDh-6" value="" style="endArrow=classic;html=1;rounded=0;exitX=0;exitY=0;exitDx=0;exitDy=0;entryX=0.5;entryY=1;entryDx=0;entryDy=0;" parent="1" source="tc9lPHJW7ty5cSRw3GDh-1" target="tc9lPHJW7ty5cSRw3GDh-3" edge="1">
          <mxGeometry width="50" height="50" relative="1" as="geometry">
            <mxPoint x="220" y="200" as="sourcePoint" />
            <mxPoint x="160" y="170" as="targetPoint" />
            <Array as="points">
              <mxPoint x="180" y="190" />
            </Array>
          </mxGeometry>
        </mxCell>
        <mxCell id="tc9lPHJW7ty5cSRw3GDh-7" value="add task" style="rounded=1;whiteSpace=wrap;html=1;" parent="1" vertex="1">
          <mxGeometry x="253" y="107" width="50" height="50" as="geometry" />
        </mxCell>
        <mxCell id="tc9lPHJW7ty5cSRw3GDh-8" value="" style="endArrow=classic;html=1;rounded=0;exitX=0.5;exitY=0;exitDx=0;exitDy=0;strokeWidth=2;dashed=1;entryX=0.5;entryY=1;entryDx=0;entryDy=0;" parent="1" source="tc9lPHJW7ty5cSRw3GDh-13" target="vAXXl4r_G6Kw9fOAu5oX-20" edge="1">
          <mxGeometry width="50" height="50" relative="1" as="geometry">
            <mxPoint x="380" y="190" as="sourcePoint" />
            <mxPoint x="360" y="-300" as="targetPoint" />
          </mxGeometry>
        </mxCell>
        <mxCell id="tc9lPHJW7ty5cSRw3GDh-14" value="" style="endArrow=classic;html=1;rounded=0;exitX=0.5;exitY=0;exitDx=0;exitDy=0;strokeWidth=2;dashed=1;" parent="1" source="tc9lPHJW7ty5cSRw3GDh-1" target="tc9lPHJW7ty5cSRw3GDh-13" edge="1">
          <mxGeometry width="50" height="50" relative="1" as="geometry">
            <mxPoint x="360" y="250" as="sourcePoint" />
            <mxPoint x="360" y="-100" as="targetPoint" />
          </mxGeometry>
        </mxCell>
        <mxCell id="tc9lPHJW7ty5cSRw3GDh-13" value="" style="rounded=1;whiteSpace=wrap;html=1;" parent="1" vertex="1">
          <mxGeometry x="332.5" y="20" width="55" height="50" as="geometry" />
        </mxCell>
        <mxCell id="tc9lPHJW7ty5cSRw3GDh-15" value="upd env-state" style="rounded=1;whiteSpace=wrap;html=1;" parent="1" vertex="1">
          <mxGeometry x="335" y="7" width="65" height="60" as="geometry" />
        </mxCell>
        <mxCell id="tc9lPHJW7ty5cSRw3GDh-16" value="" style="endArrow=classic;html=1;rounded=0;exitX=1;exitY=0.5;exitDx=0;exitDy=0;entryX=0;entryY=0.5;entryDx=0;entryDy=0;" parent="1" source="tc9lPHJW7ty5cSRw3GDh-3" target="tc9lPHJW7ty5cSRw3GDh-2" edge="1">
          <mxGeometry width="50" height="50" relative="1" as="geometry">
            <mxPoint x="140" y="150" as="sourcePoint" />
            <mxPoint x="190" y="100" as="targetPoint" />
          </mxGeometry>
        </mxCell>
        <mxCell id="tc9lPHJW7ty5cSRw3GDh-37" value="merge" style="edgeLabel;html=1;align=center;verticalAlign=middle;resizable=0;points=[];rotation=-45;" parent="tc9lPHJW7ty5cSRw3GDh-16" vertex="1" connectable="0">
          <mxGeometry x="-0.2971" y="2" relative="1" as="geometry">
            <mxPoint as="offset" />
          </mxGeometry>
        </mxCell>
        <mxCell id="tc9lPHJW7ty5cSRw3GDh-17" value="" style="endArrow=classic;html=1;rounded=0;exitX=0.5;exitY=1;exitDx=0;exitDy=0;entryX=0;entryY=0;entryDx=0;entryDy=0;" parent="1" target="tc9lPHJW7ty5cSRw3GDh-3" edge="1">
          <mxGeometry width="50" height="50" relative="1" as="geometry">
            <mxPoint x="50" y="60" as="sourcePoint" />
            <mxPoint x="150" y="120" as="targetPoint" />
            <Array as="points" />
          </mxGeometry>
        </mxCell>
        <mxCell id="tc9lPHJW7ty5cSRw3GDh-21" value="" style="endArrow=classic;html=1;rounded=0;" parent="1" edge="1">
          <mxGeometry width="50" height="50" relative="1" as="geometry">
            <mxPoint x="230" y="250" as="sourcePoint" />
            <mxPoint x="300" y="190" as="targetPoint" />
          </mxGeometry>
        </mxCell>
        <mxCell id="tc9lPHJW7ty5cSRw3GDh-23" value="linearized requests" style="edgeLabel;html=1;align=center;verticalAlign=middle;resizable=0;points=[];" parent="tc9lPHJW7ty5cSRw3GDh-21" vertex="1" connectable="0">
          <mxGeometry x="-0.8774" y="2" relative="1" as="geometry">
            <mxPoint as="offset" />
          </mxGeometry>
        </mxCell>
        <mxCell id="tc9lPHJW7ty5cSRw3GDh-24" value="" style="endArrow=classic;html=1;rounded=0;" parent="1" edge="1">
          <mxGeometry width="50" height="50" relative="1" as="geometry">
            <mxPoint x="410" y="100" as="sourcePoint" />
            <mxPoint x="360" y="170" as="targetPoint" />
          </mxGeometry>
        </mxCell>
        <mxCell id="tc9lPHJW7ty5cSRw3GDh-25" value="actual state" style="edgeLabel;html=1;align=center;verticalAlign=middle;resizable=0;points=[];" parent="tc9lPHJW7ty5cSRw3GDh-24" vertex="1" connectable="0">
          <mxGeometry x="-0.8774" y="2" relative="1" as="geometry">
            <mxPoint x="2" y="-8" as="offset" />
          </mxGeometry>
        </mxCell>
        <mxCell id="tc9lPHJW7ty5cSRw3GDh-26" value="" style="endArrow=classic;html=1;rounded=0;" parent="1" edge="1">
          <mxGeometry width="50" height="50" relative="1" as="geometry">
            <mxPoint x="150" y="260" as="sourcePoint" />
            <mxPoint x="210" y="210" as="targetPoint" />
          </mxGeometry>
        </mxCell>
        <mxCell id="tc9lPHJW7ty5cSRw3GDh-27" value="request" style="edgeLabel;html=1;align=center;verticalAlign=middle;resizable=0;points=[];" parent="tc9lPHJW7ty5cSRw3GDh-26" vertex="1" connectable="0">
          <mxGeometry x="-0.8774" y="2" relative="1" as="geometry">
            <mxPoint as="offset" />
          </mxGeometry>
        </mxCell>
        <mxCell id="tc9lPHJW7ty5cSRw3GDh-31" value="" style="rounded=1;whiteSpace=wrap;html=1;" parent="1" vertex="1">
          <mxGeometry x="237" y="-196" width="50" height="50" as="geometry" />
        </mxCell>
        <mxCell id="tc9lPHJW7ty5cSRw3GDh-32" value="" style="endArrow=classic;html=1;rounded=0;exitX=0.5;exitY=0;exitDx=0;exitDy=0;entryX=0.636;entryY=1.05;entryDx=0;entryDy=0;entryPerimeter=0;" parent="1" source="vAXXl4r_G6Kw9fOAu5oX-13" target="tc9lPHJW7ty5cSRw3GDh-34" edge="1">
          <mxGeometry width="50" height="50" relative="1" as="geometry">
            <mxPoint x="316" y="-261" as="sourcePoint" />
            <mxPoint x="204" y="-267.5" as="targetPoint" />
          </mxGeometry>
        </mxCell>
        <mxCell id="tc9lPHJW7ty5cSRw3GDh-34" value="release lock prj1,2" style="rounded=1;whiteSpace=wrap;html=1;" parent="1" vertex="1">
          <mxGeometry x="228" y="-200" width="55" height="50" as="geometry" />
        </mxCell>
        <mxCell id="vAXXl4r_G6Kw9fOAu5oX-1" value="- prj1&lt;div&gt;&amp;nbsp; - lock&lt;/div&gt;&lt;div&gt;&lt;div&gt;- prj2&lt;/div&gt;&lt;div&gt;&amp;nbsp; - lock&lt;/div&gt;&lt;div&gt;&lt;span style=&quot;background-color: transparent; color: light-dark(rgb(0, 0, 0), rgb(255, 255, 255));&quot;&gt;- prj3&lt;/span&gt;&lt;/div&gt;&lt;/div&gt;&lt;div&gt;&amp;nbsp; - version&lt;/div&gt;" style="text;html=1;align=left;verticalAlign=middle;whiteSpace=wrap;rounded=1;fillColor=#f8cecc;strokeColor=none;" parent="1" vertex="1">
          <mxGeometry x="504" y="-347" width="91.5" height="120" as="geometry" />
        </mxCell>
        <mxCell id="vAXXl4r_G6Kw9fOAu5oX-7" value="" style="rounded=1;whiteSpace=wrap;html=1;" parent="1" vertex="1">
          <mxGeometry x="236" y="23" width="50" height="50" as="geometry" />
        </mxCell>
        <mxCell id="vAXXl4r_G6Kw9fOAu5oX-8" value="lockID=123,&lt;div&gt;prj1,2&lt;/div&gt;" style="rounded=1;whiteSpace=wrap;html=1;" parent="1" vertex="1">
          <mxGeometry x="239" y="20" width="52" height="50" as="geometry" />
        </mxCell>
        <mxCell id="vAXXl4r_G6Kw9fOAu5oX-10" value="" style="endArrow=classic;html=1;rounded=0;exitX=0.5;exitY=0;exitDx=0;exitDy=0;entryX=0.5;entryY=1;entryDx=0;entryDy=0;" parent="1" source="tc9lPHJW7ty5cSRw3GDh-7" target="vAXXl4r_G6Kw9fOAu5oX-7" edge="1">
          <mxGeometry width="50" height="50" relative="1" as="geometry">
            <mxPoint x="149" y="45" as="sourcePoint" />
            <mxPoint x="300" y="90" as="targetPoint" />
            <Array as="points">
              <mxPoint x="278" y="90" />
            </Array>
          </mxGeometry>
        </mxCell>
        <mxCell id="vAXXl4r_G6Kw9fOAu5oX-12" value="" style="rounded=1;whiteSpace=wrap;html=1;" parent="1" vertex="1">
          <mxGeometry x="236" y="-114" width="50" height="50" as="geometry" />
        </mxCell>
        <mxCell id="vAXXl4r_G6Kw9fOAu5oX-13" value="lock&lt;div&gt;prj3&lt;/div&gt;" style="rounded=1;whiteSpace=wrap;html=1;" parent="1" vertex="1">
          <mxGeometry x="239" y="-117" width="52" height="50" as="geometry" />
        </mxCell>
        <mxCell id="vAXXl4r_G6Kw9fOAu5oX-20" value="" style="rounded=1;whiteSpace=wrap;html=1;" parent="1" vertex="1">
          <mxGeometry x="331.23" y="-117" width="55" height="50" as="geometry" />
        </mxCell>
        <mxCell id="vAXXl4r_G6Kw9fOAu5oX-21" value="env-state&amp;nbsp; HEAD" style="rounded=1;whiteSpace=wrap;html=1;" parent="1" vertex="1">
          <mxGeometry x="333.73" y="-130" width="65" height="60" as="geometry" />
        </mxCell>
        <mxCell id="vAXXl4r_G6Kw9fOAu5oX-23" value="property updated&lt;div&gt;prj3&lt;/div&gt;" style="rounded=1;whiteSpace=wrap;html=1;" parent="1" vertex="1">
          <mxGeometry x="140" y="-53" width="60" height="60" as="geometry" />
        </mxCell>
        <mxCell id="vAXXl4r_G6Kw9fOAu5oX-24" value="" style="endArrow=classic;html=1;rounded=0;exitX=0.148;exitY=-0.031;exitDx=0;exitDy=0;exitPerimeter=0;entryX=0.5;entryY=1;entryDx=0;entryDy=0;" parent="1" source="tc9lPHJW7ty5cSRw3GDh-4" target="vAXXl4r_G6Kw9fOAu5oX-23" edge="1">
          <mxGeometry width="50" height="50" relative="1" as="geometry">
            <mxPoint x="240" y="300" as="sourcePoint" />
            <mxPoint x="290" y="250" as="targetPoint" />
            <Array as="points">
              <mxPoint x="250" y="190" />
              <mxPoint x="180" y="80" />
            </Array>
          </mxGeometry>
        </mxCell>
        <mxCell id="vAXXl4r_G6Kw9fOAu5oX-26" value="" style="endArrow=classic;html=1;rounded=0;exitX=0.5;exitY=0;exitDx=0;exitDy=0;entryX=0.5;entryY=1;entryDx=0;entryDy=0;" parent="1" source="vAXXl4r_G6Kw9fOAu5oX-8" target="vAXXl4r_G6Kw9fOAu5oX-25" edge="1">
          <mxGeometry width="50" height="50" relative="1" as="geometry">
            <mxPoint x="286" y="25" as="sourcePoint" />
            <mxPoint x="258" y="-50" as="targetPoint" />
          </mxGeometry>
        </mxCell>
        <mxCell id="vAXXl4r_G6Kw9fOAu5oX-25" value="add task 2" style="rounded=1;whiteSpace=wrap;html=1;" parent="1" vertex="1">
          <mxGeometry x="241" y="-46" width="46" height="46" as="geometry" />
        </mxCell>
        <mxCell id="vAXXl4r_G6Kw9fOAu5oX-27" value="" style="endArrow=classic;html=1;rounded=0;exitX=1;exitY=0.5;exitDx=0;exitDy=0;entryX=0;entryY=0.5;entryDx=0;entryDy=0;" parent="1" source="vAXXl4r_G6Kw9fOAu5oX-23" target="vAXXl4r_G6Kw9fOAu5oX-25" edge="1">
          <mxGeometry width="50" height="50" relative="1" as="geometry">
            <mxPoint x="170" y="30" as="sourcePoint" />
            <mxPoint x="220" y="-20" as="targetPoint" />
          </mxGeometry>
        </mxCell>
        <mxCell id="vAXXl4r_G6Kw9fOAu5oX-28" value="merge" style="edgeLabel;html=1;align=center;verticalAlign=middle;resizable=0;points=[];rotation=-60;" parent="vAXXl4r_G6Kw9fOAu5oX-27" vertex="1" connectable="0">
          <mxGeometry x="-0.2671" y="1" relative="1" as="geometry">
            <mxPoint as="offset" />
          </mxGeometry>
        </mxCell>
        <mxCell id="vAXXl4r_G6Kw9fOAu5oX-29" value="" style="endArrow=classic;html=1;rounded=0;exitX=0.5;exitY=0;exitDx=0;exitDy=0;entryX=0.5;entryY=1;entryDx=0;entryDy=0;" parent="1" source="vAXXl4r_G6Kw9fOAu5oX-25" target="vAXXl4r_G6Kw9fOAu5oX-13" edge="1">
          <mxGeometry width="50" height="50" relative="1" as="geometry">
            <mxPoint x="225" y="-122" as="sourcePoint" />
            <mxPoint x="332" y="-124" as="targetPoint" />
          </mxGeometry>
        </mxCell>
        <mxCell id="vAXXl4r_G6Kw9fOAu5oX-35" value="" style="rounded=1;whiteSpace=wrap;html=1;" parent="1" vertex="1">
          <mxGeometry x="231.5" y="-270" width="50" height="50" as="geometry" />
        </mxCell>
        <mxCell id="vAXXl4r_G6Kw9fOAu5oX-36" value="release lock prj3" style="rounded=1;whiteSpace=wrap;html=1;" parent="1" vertex="1">
          <mxGeometry x="222.5" y="-274" width="55" height="50" as="geometry" />
        </mxCell>
        <mxCell id="vAXXl4r_G6Kw9fOAu5oX-37" value="" style="endArrow=classic;html=1;rounded=0;exitX=0.5;exitY=0;exitDx=0;exitDy=0;entryX=0.5;entryY=1;entryDx=0;entryDy=0;" parent="1" source="tc9lPHJW7ty5cSRw3GDh-34" target="vAXXl4r_G6Kw9fOAu5oX-35" edge="1">
          <mxGeometry width="50" height="50" relative="1" as="geometry">
            <mxPoint x="233" y="-260" as="sourcePoint" />
            <mxPoint x="259" y="-230" as="targetPoint" />
          </mxGeometry>
        </mxCell>
        <mxCell id="vAXXl4r_G6Kw9fOAu5oX-38" value="" style="endArrow=classic;html=1;rounded=0;exitX=1;exitY=0.5;exitDx=0;exitDy=0;entryX=0;entryY=0.5;entryDx=0;entryDy=0;" parent="1" source="vAXXl4r_G6Kw9fOAu5oX-8" target="tc9lPHJW7ty5cSRw3GDh-13" edge="1">
          <mxGeometry width="50" height="50" relative="1" as="geometry">
            <mxPoint x="260" y="-20" as="sourcePoint" />
            <mxPoint x="320" y="-70" as="targetPoint" />
          </mxGeometry>
        </mxCell>
        <mxCell id="vAXXl4r_G6Kw9fOAu5oX-39" value="merge" style="edgeLabel;html=1;align=center;verticalAlign=middle;resizable=0;points=[];rotation=-75;" parent="vAXXl4r_G6Kw9fOAu5oX-38" vertex="1" connectable="0">
          <mxGeometry x="-0.092" y="3" relative="1" as="geometry">
            <mxPoint y="1" as="offset" />
          </mxGeometry>
        </mxCell>
        <mxCell id="vAXXl4r_G6Kw9fOAu5oX-40" value="executor 1" style="ellipse;whiteSpace=wrap;html=1;aspect=fixed;" parent="1" vertex="1">
          <mxGeometry x="326.23" y="-205" width="60" height="60" as="geometry" />
        </mxCell>
        <mxCell id="vAXXl4r_G6Kw9fOAu5oX-41" value="" style="endArrow=classic;html=1;rounded=0;exitX=0.25;exitY=0.953;exitDx=0;exitDy=0;exitPerimeter=0;" parent="1" source="vAXXl4r_G6Kw9fOAu5oX-40" edge="1">
          <mxGeometry width="50" height="50" relative="1" as="geometry">
            <mxPoint x="290" as="sourcePoint" />
            <mxPoint x="310" y="-10" as="targetPoint" />
          </mxGeometry>
        </mxCell>
        <mxCell id="vAXXl4r_G6Kw9fOAu5oX-53" value="task&amp;nbsp;&lt;span style=&quot;background-color: light-dark(#ffffff, var(--ge-dark-color, #121212)); color: light-dark(rgb(0, 0, 0), rgb(255, 255, 255));&quot;&gt;completed&lt;/span&gt;" style="edgeLabel;html=1;align=center;verticalAlign=middle;resizable=0;points=[];rotation=15;" parent="vAXXl4r_G6Kw9fOAu5oX-41" vertex="1" connectable="0">
          <mxGeometry x="0.3156" y="2" relative="1" as="geometry">
            <mxPoint x="-4" y="30" as="offset" />
          </mxGeometry>
        </mxCell>
        <mxCell id="vAXXl4r_G6Kw9fOAu5oX-42" value="" style="endArrow=classic;html=1;rounded=0;exitX=0.023;exitY=0.705;exitDx=0;exitDy=0;exitPerimeter=0;entryX=1;entryY=0.5;entryDx=0;entryDy=0;" parent="1" source="vAXXl4r_G6Kw9fOAu5oX-40" target="tc9lPHJW7ty5cSRw3GDh-31" edge="1">
          <mxGeometry width="50" height="50" relative="1" as="geometry">
            <mxPoint x="210" y="-280" as="sourcePoint" />
            <mxPoint x="260" y="-330" as="targetPoint" />
          </mxGeometry>
        </mxCell>
        <mxCell id="vAXXl4r_G6Kw9fOAu5oX-43" value="" style="endArrow=classic;html=1;rounded=0;exitX=0;exitY=1;exitDx=0;exitDy=0;entryX=0.75;entryY=0;entryDx=0;entryDy=0;" parent="1" source="vAXXl4r_G6Kw9fOAu5oX-40" target="vAXXl4r_G6Kw9fOAu5oX-8" edge="1">
          <mxGeometry width="50" height="50" relative="1" as="geometry">
            <mxPoint x="240" y="-170" as="sourcePoint" />
            <mxPoint x="290" y="-220" as="targetPoint" />
          </mxGeometry>
        </mxCell>
        <mxCell id="vAXXl4r_G6Kw9fOAu5oX-44" value="executor 2" style="ellipse;whiteSpace=wrap;html=1;aspect=fixed;" parent="1" vertex="1">
          <mxGeometry x="328.73" y="-334" width="60" height="60" as="geometry" />
        </mxCell>
        <mxCell id="vAXXl4r_G6Kw9fOAu5oX-45" value="" style="endArrow=classic;html=1;rounded=0;exitX=0;exitY=1;exitDx=0;exitDy=0;entryX=0.5;entryY=0;entryDx=0;entryDy=0;" parent="1" source="vAXXl4r_G6Kw9fOAu5oX-44" target="vAXXl4r_G6Kw9fOAu5oX-36" edge="1">
          <mxGeometry width="50" height="50" relative="1" as="geometry">
            <mxPoint x="298.42679656440384" y="-338.78679656440363" as="sourcePoint" />
            <mxPoint x="157.14" y="-410" as="targetPoint" />
          </mxGeometry>
        </mxCell>
        <mxCell id="vAXXl4r_G6Kw9fOAu5oX-47" value="" style="endArrow=classic;html=1;rounded=0;exitX=0.5;exitY=1;exitDx=0;exitDy=0;" parent="1" source="vAXXl4r_G6Kw9fOAu5oX-44" edge="1">
          <mxGeometry width="50" height="50" relative="1" as="geometry">
            <mxPoint x="400" y="-370" as="sourcePoint" />
            <mxPoint x="300" y="-180" as="targetPoint" />
          </mxGeometry>
        </mxCell>
        <mxCell id="vAXXl4r_G6Kw9fOAu5oX-54" value="task 2 completed" style="edgeLabel;html=1;align=center;verticalAlign=middle;resizable=0;points=[];rotation=30;" parent="vAXXl4r_G6Kw9fOAu5oX-47" vertex="1" connectable="0">
          <mxGeometry x="-0.354" y="-3" relative="1" as="geometry">
            <mxPoint x="17" as="offset" />
          </mxGeometry>
        </mxCell>
        <mxCell id="vAXXl4r_G6Kw9fOAu5oX-48" value="" style="endArrow=classic;html=1;rounded=0;exitX=1;exitY=0.5;exitDx=0;exitDy=0;entryX=0;entryY=0.5;entryDx=0;entryDy=0;" parent="1" source="vAXXl4r_G6Kw9fOAu5oX-13" target="vAXXl4r_G6Kw9fOAu5oX-20" edge="1">
          <mxGeometry width="50" height="50" relative="1" as="geometry">
            <mxPoint x="83" y="-96.5" as="sourcePoint" />
            <mxPoint x="323" y="-126.5" as="targetPoint" />
          </mxGeometry>
        </mxCell>
        <mxCell id="vAXXl4r_G6Kw9fOAu5oX-51" value="merge" style="edgeLabel;html=1;align=center;verticalAlign=middle;resizable=0;points=[];rotation=-70;" parent="vAXXl4r_G6Kw9fOAu5oX-48" vertex="1" connectable="0">
          <mxGeometry x="-0.2291" y="2" relative="1" as="geometry">
            <mxPoint as="offset" />
          </mxGeometry>
        </mxCell>
        <mxCell id="vAXXl4r_G6Kw9fOAu5oX-22" value="env-request-001&lt;div&gt;HEAD&lt;/div&gt;" style="rounded=1;whiteSpace=wrap;html=1;fillColor=#e1d5e7;strokeColor=none;" parent="1" vertex="1">
          <mxGeometry x="166" y="-312" width="70" height="50" as="geometry" />
        </mxCell>
        <mxCell id="vAXXl4r_G6Kw9fOAu5oX-56" value="" style="rounded=1;whiteSpace=wrap;html=1;" parent="1" vertex="1">
          <mxGeometry x="430" y="-127" width="50" height="50" as="geometry" />
        </mxCell>
        <mxCell id="vAXXl4r_G6Kw9fOAu5oX-57" value="add task" style="rounded=1;whiteSpace=wrap;html=1;" parent="1" vertex="1">
          <mxGeometry x="433" y="-123" width="50" height="50" as="geometry" />
        </mxCell>
        <mxCell id="vAXXl4r_G6Kw9fOAu5oX-58" value="" style="endArrow=classic;html=1;rounded=0;entryX=0.5;entryY=1;entryDx=0;entryDy=0;exitX=0.75;exitY=0;exitDx=0;exitDy=0;" parent="1" source="vAXXl4r_G6Kw9fOAu5oX-8" target="vAXXl4r_G6Kw9fOAu5oX-57" edge="1">
          <mxGeometry width="50" height="50" relative="1" as="geometry">
            <mxPoint x="450" y="-30" as="sourcePoint" />
            <mxPoint x="470" y="210" as="targetPoint" />
            <Array as="points">
              <mxPoint x="300" y="-10" />
              <mxPoint x="430" y="-40" />
            </Array>
          </mxGeometry>
        </mxCell>
        <mxCell id="vAXXl4r_G6Kw9fOAu5oX-59" value="env-request-lockID=123-002&lt;div&gt;HEAD&lt;/div&gt;" style="rounded=1;whiteSpace=wrap;html=1;fillColor=#e1d5e7;strokeColor=none;" parent="1" vertex="1">
          <mxGeometry x="450" y="-80" width="70" height="50" as="geometry" />
        </mxCell>
        <mxCell id="vAXXl4r_G6Kw9fOAu5oX-61" value="property updated&lt;div&gt;prj1,prj2&lt;/div&gt;" style="rounded=1;whiteSpace=wrap;html=1;" parent="1" vertex="1">
          <mxGeometry x="520" y="-128" width="60" height="60" as="geometry" />
        </mxCell>
        <mxCell id="vAXXl4r_G6Kw9fOAu5oX-62" value="" style="endArrow=classic;html=1;rounded=0;exitX=0;exitY=0.5;exitDx=0;exitDy=0;" parent="1" source="vAXXl4r_G6Kw9fOAu5oX-61" target="vAXXl4r_G6Kw9fOAu5oX-57" edge="1">
          <mxGeometry width="50" height="50" relative="1" as="geometry">
            <mxPoint x="528" y="56.5" as="sourcePoint" />
            <mxPoint x="578" y="6.5" as="targetPoint" />
          </mxGeometry>
        </mxCell>
        <mxCell id="vAXXl4r_G6Kw9fOAu5oX-63" value="merge" style="edgeLabel;html=1;align=center;verticalAlign=middle;resizable=0;points=[];rotation=-60;" parent="vAXXl4r_G6Kw9fOAu5oX-62" vertex="1" connectable="0">
          <mxGeometry x="0.1304" y="1" relative="1" as="geometry">
            <mxPoint as="offset" />
          </mxGeometry>
        </mxCell>
        <mxCell id="vAXXl4r_G6Kw9fOAu5oX-64" value="" style="endArrow=classic;html=1;rounded=0;exitX=1;exitY=0;exitDx=0;exitDy=0;entryX=0.5;entryY=1;entryDx=0;entryDy=0;" parent="1" source="tc9lPHJW7ty5cSRw3GDh-4" target="vAXXl4r_G6Kw9fOAu5oX-61" edge="1">
          <mxGeometry width="50" height="50" relative="1" as="geometry">
            <mxPoint x="580" y="210" as="sourcePoint" />
            <mxPoint x="630" y="160" as="targetPoint" />
            <Array as="points">
              <mxPoint x="540" y="-10" />
            </Array>
          </mxGeometry>
        </mxCell>
        <mxCell id="vAXXl4r_G6Kw9fOAu5oX-65" value="&lt;div&gt;Pull Request&amp;nbsp;&lt;/div&gt;&lt;div&gt;&lt;span style=&quot;background-color: transparent; color: light-dark(rgb(0, 0, 0), rgb(255, 255, 255));&quot;&gt;my-branch -&amp;gt; env-request-001&lt;/span&gt;&lt;/div&gt;" style="text;html=1;align=center;verticalAlign=middle;whiteSpace=wrap;rounded=0;fillColor=#fff2cc;strokeColor=none;" parent="1" vertex="1">
          <mxGeometry x="-31" width="91" height="50" as="geometry" />
        </mxCell>
        <mxCell id="vAXXl4r_G6Kw9fOAu5oX-66" value="&lt;div&gt;Pull Request&amp;nbsp;&lt;/div&gt;&lt;div&gt;&lt;span style=&quot;background-color: transparent; color: light-dark(rgb(0, 0, 0), rgb(255, 255, 255));&quot;&gt;my-branch -&amp;gt; env-request-002&lt;/span&gt;&lt;/div&gt;" style="text;html=1;align=center;verticalAlign=middle;whiteSpace=wrap;rounded=1;fillColor=#fff2cc;strokeColor=none;" parent="1" vertex="1">
          <mxGeometry x="504.5" y="-220" width="91" height="60" as="geometry" />
        </mxCell>
        <mxCell id="vAXXl4r_G6Kw9fOAu5oX-67" value="" style="endArrow=classic;html=1;rounded=0;exitX=0.5;exitY=1;exitDx=0;exitDy=0;entryX=0.5;entryY=0;entryDx=0;entryDy=0;" parent="1" source="vAXXl4r_G6Kw9fOAu5oX-66" target="vAXXl4r_G6Kw9fOAu5oX-61" edge="1">
          <mxGeometry width="50" height="50" relative="1" as="geometry">
            <mxPoint x="730" y="-50" as="sourcePoint" />
            <mxPoint x="630" y="-150" as="targetPoint" />
          </mxGeometry>
        </mxCell>
        <mxCell id="vAXXl4r_G6Kw9fOAu5oX-69" value="" style="endArrow=classic;html=1;rounded=0;exitX=0;exitY=0.5;exitDx=0;exitDy=0;entryX=1;entryY=0.5;entryDx=0;entryDy=0;" parent="1" source="vAXXl4r_G6Kw9fOAu5oX-57" target="vAXXl4r_G6Kw9fOAu5oX-21" edge="1">
          <mxGeometry width="50" height="50" relative="1" as="geometry">
            <mxPoint x="413" y="-46.5" as="sourcePoint" />
            <mxPoint x="463" y="-96.5" as="targetPoint" />
          </mxGeometry>
        </mxCell>
        <mxCell id="vAXXl4r_G6Kw9fOAu5oX-70" value="merge" style="edgeLabel;html=1;align=center;verticalAlign=middle;resizable=0;points=[];rotation=-70;" parent="vAXXl4r_G6Kw9fOAu5oX-69" vertex="1" connectable="0">
          <mxGeometry x="0.3078" y="-2" relative="1" as="geometry">
            <mxPoint as="offset" />
          </mxGeometry>
        </mxCell>
        <mxCell id="vAXXl4r_G6Kw9fOAu5oX-71" value="executor 3" style="ellipse;whiteSpace=wrap;html=1;aspect=fixed;" parent="1" vertex="1">
          <mxGeometry x="410" y="-326" width="60" height="60" as="geometry" />
        </mxCell>
        <mxCell id="vAXXl4r_G6Kw9fOAu5oX-72" value="" style="endArrow=classic;html=1;rounded=0;exitX=0.5;exitY=1;exitDx=0;exitDy=0;" parent="1" source="vAXXl4r_G6Kw9fOAu5oX-71" edge="1">
          <mxGeometry width="50" height="50" relative="1" as="geometry">
            <mxPoint x="440" y="-200" as="sourcePoint" />
            <mxPoint x="440" y="-180" as="targetPoint" />
          </mxGeometry>
        </mxCell>
        <mxCell id="vAXXl4r_G6Kw9fOAu5oX-78" value="" style="endArrow=classic;html=1;rounded=0;" parent="1" edge="1">
          <mxGeometry width="50" height="50" relative="1" as="geometry">
            <mxPoint x="610" y="10" as="sourcePoint" />
            <mxPoint x="500" y="-90" as="targetPoint" />
          </mxGeometry>
        </mxCell>
        <mxCell id="vAXXl4r_G6Kw9fOAu5oX-79" value="has lock prj1?" style="rhombus;whiteSpace=wrap;html=1;" parent="1" vertex="1">
          <mxGeometry x="660" y="18" width="80" height="80" as="geometry" />
        </mxCell>
        <mxCell id="vAXXl4r_G6Kw9fOAu5oX-80" value="want merge prj1 to request-xxx" style="rounded=1;whiteSpace=wrap;html=1;" parent="1" vertex="1">
          <mxGeometry x="670" y="-67" width="60" height="60" as="geometry" />
        </mxCell>
        <mxCell id="vAXXl4r_G6Kw9fOAu5oX-81" value="" style="endArrow=classic;html=1;rounded=0;exitX=0.5;exitY=1;exitDx=0;exitDy=0;entryX=0.5;entryY=0;entryDx=0;entryDy=0;" parent="1" source="vAXXl4r_G6Kw9fOAu5oX-80" target="vAXXl4r_G6Kw9fOAu5oX-79" edge="1">
          <mxGeometry width="50" height="50" relative="1" as="geometry">
            <mxPoint x="780" y="30" as="sourcePoint" />
            <mxPoint x="830" y="-20" as="targetPoint" />
          </mxGeometry>
        </mxCell>
        <mxCell id="vAXXl4r_G6Kw9fOAu5oX-82" value="" style="endArrow=classic;html=1;rounded=0;exitX=0.5;exitY=1;exitDx=0;exitDy=0;entryX=0.5;entryY=0;entryDx=0;entryDy=0;" parent="1" source="vAXXl4r_G6Kw9fOAu5oX-79" target="vAXXl4r_G6Kw9fOAu5oX-84" edge="1">
          <mxGeometry width="50" height="50" relative="1" as="geometry">
            <mxPoint x="700" y="190" as="sourcePoint" />
            <mxPoint x="700" y="140" as="targetPoint" />
          </mxGeometry>
        </mxCell>
        <mxCell id="vAXXl4r_G6Kw9fOAu5oX-83" value="yes" style="edgeLabel;html=1;align=center;verticalAlign=middle;resizable=0;points=[];" parent="vAXXl4r_G6Kw9fOAu5oX-82" vertex="1" connectable="0">
          <mxGeometry x="-0.2381" y="2" relative="1" as="geometry">
            <mxPoint as="offset" />
          </mxGeometry>
        </mxCell>
        <mxCell id="vAXXl4r_G6Kw9fOAu5oX-84" value="merge prj1!" style="rounded=1;whiteSpace=wrap;html=1;" parent="1" vertex="1">
          <mxGeometry x="680" y="130" width="40" height="40" as="geometry" />
        </mxCell>
        <mxCell id="vAXXl4r_G6Kw9fOAu5oX-85" value="" style="endArrow=classic;html=1;rounded=0;exitX=0;exitY=0.5;exitDx=0;exitDy=0;" parent="1" source="vAXXl4r_G6Kw9fOAu5oX-79" edge="1">
          <mxGeometry width="50" height="50" relative="1" as="geometry">
            <mxPoint x="590" y="160" as="sourcePoint" />
            <mxPoint x="620" y="58" as="targetPoint" />
          </mxGeometry>
        </mxCell>
        <mxCell id="vAXXl4r_G6Kw9fOAu5oX-86" value="no" style="edgeLabel;html=1;align=center;verticalAlign=middle;resizable=0;points=[];" parent="vAXXl4r_G6Kw9fOAu5oX-85" vertex="1" connectable="0">
          <mxGeometry x="-0.0336" y="2" relative="1" as="geometry">
            <mxPoint x="3" y="-3" as="offset" />
          </mxGeometry>
        </mxCell>
        <mxCell id="vAXXl4r_G6Kw9fOAu5oX-87" value="want merge prj1 to state-xxx" style="rounded=1;whiteSpace=wrap;html=1;" parent="1" vertex="1">
          <mxGeometry x="780" y="-68" width="60" height="60" as="geometry" />
        </mxCell>
        <mxCell id="vAXXl4r_G6Kw9fOAu5oX-88" value="has lock prj1?" style="rhombus;whiteSpace=wrap;html=1;" parent="1" vertex="1">
          <mxGeometry x="770" y="18" width="80" height="80" as="geometry" />
        </mxCell>
        <mxCell id="vAXXl4r_G6Kw9fOAu5oX-89" value="" style="endArrow=classic;html=1;rounded=0;exitX=0.5;exitY=1;exitDx=0;exitDy=0;entryX=0.5;entryY=0;entryDx=0;entryDy=0;" parent="1" source="vAXXl4r_G6Kw9fOAu5oX-87" target="vAXXl4r_G6Kw9fOAu5oX-88" edge="1">
          <mxGeometry width="50" height="50" relative="1" as="geometry">
            <mxPoint x="780" y="200" as="sourcePoint" />
            <mxPoint x="830" y="150" as="targetPoint" />
          </mxGeometry>
        </mxCell>
        <mxCell id="vAXXl4r_G6Kw9fOAu5oX-90" value="" style="endArrow=classic;html=1;rounded=0;exitX=0.5;exitY=1;exitDx=0;exitDy=0;entryX=0.5;entryY=0;entryDx=0;entryDy=0;" parent="1" source="vAXXl4r_G6Kw9fOAu5oX-88" target="vAXXl4r_G6Kw9fOAu5oX-93" edge="1">
          <mxGeometry width="50" height="50" relative="1" as="geometry">
            <mxPoint x="790" y="210" as="sourcePoint" />
            <mxPoint x="810" y="130" as="targetPoint" />
          </mxGeometry>
        </mxCell>
        <mxCell id="vAXXl4r_G6Kw9fOAu5oX-91" value="yes" style="edgeLabel;html=1;align=center;verticalAlign=middle;resizable=0;points=[];" parent="vAXXl4r_G6Kw9fOAu5oX-90" vertex="1" connectable="0">
          <mxGeometry x="-0.3438" y="-1" relative="1" as="geometry">
            <mxPoint as="offset" />
          </mxGeometry>
        </mxCell>
        <mxCell id="vAXXl4r_G6Kw9fOAu5oX-93" value="lock is merged?" style="rhombus;whiteSpace=wrap;html=1;" parent="1" vertex="1">
          <mxGeometry x="770" y="130" width="80" height="80" as="geometry" />
        </mxCell>
        <mxCell id="vAXXl4r_G6Kw9fOAu5oX-95" value="" style="endArrow=classic;html=1;rounded=0;exitX=1;exitY=0.5;exitDx=0;exitDy=0;entryX=0;entryY=0.5;entryDx=0;entryDy=0;" parent="1" source="vAXXl4r_G6Kw9fOAu5oX-93" target="vAXXl4r_G6Kw9fOAu5oX-98" edge="1">
          <mxGeometry width="50" height="50" relative="1" as="geometry">
            <mxPoint x="800" y="310" as="sourcePoint" />
            <mxPoint x="810" y="250" as="targetPoint" />
          </mxGeometry>
        </mxCell>
        <mxCell id="vAXXl4r_G6Kw9fOAu5oX-96" value="no" style="edgeLabel;html=1;align=center;verticalAlign=middle;resizable=0;points=[];" parent="vAXXl4r_G6Kw9fOAu5oX-95" vertex="1" connectable="0">
          <mxGeometry x="-0.125" y="-1" relative="1" as="geometry">
            <mxPoint as="offset" />
          </mxGeometry>
        </mxCell>
        <mxCell id="vAXXl4r_G6Kw9fOAu5oX-97" value="" style="endArrow=classic;html=1;rounded=0;exitX=1;exitY=0.5;exitDx=0;exitDy=0;entryX=1;entryY=0.5;entryDx=0;entryDy=0;" parent="1" source="vAXXl4r_G6Kw9fOAu5oX-98" target="vAXXl4r_G6Kw9fOAu5oX-87" edge="1">
          <mxGeometry width="50" height="50" relative="1" as="geometry">
            <mxPoint x="840" y="230" as="sourcePoint" />
            <mxPoint x="910" y="130" as="targetPoint" />
            <Array as="points">
              <mxPoint x="940" y="170" />
              <mxPoint x="940" y="-38" />
            </Array>
          </mxGeometry>
        </mxCell>
        <mxCell id="vAXXl4r_G6Kw9fOAu5oX-98" value="wait" style="rounded=1;whiteSpace=wrap;html=1;" parent="1" vertex="1">
          <mxGeometry x="880" y="145" width="50" height="50" as="geometry" />
        </mxCell>
        <mxCell id="vAXXl4r_G6Kw9fOAu5oX-99" value="" style="endArrow=classic;html=1;rounded=0;exitX=0.5;exitY=1;exitDx=0;exitDy=0;entryX=0.5;entryY=0;entryDx=0;entryDy=0;" parent="1" source="vAXXl4r_G6Kw9fOAu5oX-93" target="vAXXl4r_G6Kw9fOAu5oX-101" edge="1">
          <mxGeometry width="50" height="50" relative="1" as="geometry">
            <mxPoint x="840" y="300" as="sourcePoint" />
            <mxPoint x="810" y="250" as="targetPoint" />
          </mxGeometry>
        </mxCell>
        <mxCell id="vAXXl4r_G6Kw9fOAu5oX-100" value="yes" style="edgeLabel;html=1;align=center;verticalAlign=middle;resizable=0;points=[];" parent="vAXXl4r_G6Kw9fOAu5oX-99" vertex="1" connectable="0">
          <mxGeometry x="-0.125" y="2" relative="1" as="geometry">
            <mxPoint as="offset" />
          </mxGeometry>
        </mxCell>
        <mxCell id="vAXXl4r_G6Kw9fOAu5oX-101" value="merge prj1!" style="rounded=1;whiteSpace=wrap;html=1;" parent="1" vertex="1">
          <mxGeometry x="790" y="240" width="40" height="40" as="geometry" />
        </mxCell>
        <mxCell id="7DsPn4_nwZbXOxPFbN1_-1" value="" style="rounded=1;whiteSpace=wrap;html=1;" vertex="1" parent="1">
          <mxGeometry x="524.75" y="740" width="50" height="50" as="geometry" />
        </mxCell>
        <mxCell id="7DsPn4_nwZbXOxPFbN1_-2" value="" style="endArrow=classic;html=1;rounded=0;exitX=0.5;exitY=0;exitDx=0;exitDy=0;entryX=0.5;entryY=1;entryDx=0;entryDy=0;" edge="1" parent="1" source="7DsPn4_nwZbXOxPFbN1_-22" target="7DsPn4_nwZbXOxPFbN1_-6">
          <mxGeometry width="50" height="50" relative="1" as="geometry">
            <mxPoint x="544.75" y="710" as="sourcePoint" />
            <mxPoint x="510" y="360" as="targetPoint" />
          </mxGeometry>
        </mxCell>
        <mxCell id="7DsPn4_nwZbXOxPFbN1_-3" value="" style="endArrow=classic;html=1;rounded=0;exitX=1;exitY=0;exitDx=0;exitDy=0;entryX=0.5;entryY=1;entryDx=0;entryDy=0;" edge="1" parent="1" source="7DsPn4_nwZbXOxPFbN1_-1" target="7DsPn4_nwZbXOxPFbN1_-4">
          <mxGeometry width="50" height="50" relative="1" as="geometry">
            <mxPoint x="630" y="730" as="sourcePoint" />
            <mxPoint x="690" y="630" as="targetPoint" />
            <Array as="points">
              <mxPoint x="740" y="630" />
            </Array>
          </mxGeometry>
        </mxCell>
        <mxCell id="7DsPn4_nwZbXOxPFbN1_-4" value="change-property HEAD" style="rounded=1;whiteSpace=wrap;html=1;" vertex="1" parent="1">
          <mxGeometry x="740" y="472.5" width="50" height="50" as="geometry" />
        </mxCell>
        <mxCell id="7DsPn4_nwZbXOxPFbN1_-5" value="request HEAD" style="rounded=1;whiteSpace=wrap;html=1;" vertex="1" parent="1">
          <mxGeometry x="630" y="350" width="50" height="50" as="geometry" />
        </mxCell>
        <mxCell id="7DsPn4_nwZbXOxPFbN1_-6" value="state HEAD" style="rounded=1;whiteSpace=wrap;html=1;" vertex="1" parent="1">
          <mxGeometry x="524.75" y="320" width="50" height="50" as="geometry" />
        </mxCell>
        <mxCell id="7DsPn4_nwZbXOxPFbN1_-8" value="" style="endArrow=classic;html=1;rounded=0;exitX=0.5;exitY=0;exitDx=0;exitDy=0;entryX=0.5;entryY=1;entryDx=0;entryDy=0;" edge="1" parent="1" source="7DsPn4_nwZbXOxPFbN1_-11" target="7DsPn4_nwZbXOxPFbN1_-5">
          <mxGeometry width="50" height="50" relative="1" as="geometry">
            <mxPoint x="620" y="610" as="sourcePoint" />
            <mxPoint x="670" y="560" as="targetPoint" />
          </mxGeometry>
        </mxCell>
        <mxCell id="7DsPn4_nwZbXOxPFbN1_-9" value="" style="endArrow=classic;html=1;rounded=0;exitX=0;exitY=0.5;exitDx=0;exitDy=0;entryX=1;entryY=0.5;entryDx=0;entryDy=0;" edge="1" parent="1" source="7DsPn4_nwZbXOxPFbN1_-4" target="7DsPn4_nwZbXOxPFbN1_-11">
          <mxGeometry width="50" height="50" relative="1" as="geometry">
            <mxPoint x="640" y="570" as="sourcePoint" />
            <mxPoint x="690" y="590" as="targetPoint" />
          </mxGeometry>
        </mxCell>
        <mxCell id="7DsPn4_nwZbXOxPFbN1_-15" value="merge" style="edgeLabel;html=1;align=center;verticalAlign=middle;resizable=0;points=[];" vertex="1" connectable="0" parent="7DsPn4_nwZbXOxPFbN1_-9">
          <mxGeometry x="0.095" y="-2" relative="1" as="geometry">
            <mxPoint x="9" y="2" as="offset" />
          </mxGeometry>
        </mxCell>
        <mxCell id="7DsPn4_nwZbXOxPFbN1_-12" value="" style="endArrow=classic;html=1;rounded=0;exitX=0.75;exitY=0;exitDx=0;exitDy=0;entryX=0.5;entryY=1;entryDx=0;entryDy=0;" edge="1" parent="1" source="7DsPn4_nwZbXOxPFbN1_-1" target="7DsPn4_nwZbXOxPFbN1_-11">
          <mxGeometry width="50" height="50" relative="1" as="geometry">
            <mxPoint x="562" y="740" as="sourcePoint" />
            <mxPoint x="665" y="450" as="targetPoint" />
            <Array as="points">
              <mxPoint x="640" y="660" />
            </Array>
          </mxGeometry>
        </mxCell>
        <mxCell id="7DsPn4_nwZbXOxPFbN1_-11" value="" style="ellipse;whiteSpace=wrap;html=1;aspect=fixed;" vertex="1" parent="1">
          <mxGeometry x="640" y="482.5" width="30" height="30" as="geometry" />
        </mxCell>
        <mxCell id="7DsPn4_nwZbXOxPFbN1_-14" value="" style="endArrow=classic;html=1;rounded=0;exitX=0.5;exitY=0;exitDx=0;exitDy=0;entryX=0.5;entryY=1;entryDx=0;entryDy=0;" edge="1" parent="1" source="7DsPn4_nwZbXOxPFbN1_-1" target="7DsPn4_nwZbXOxPFbN1_-13">
          <mxGeometry width="50" height="50" relative="1" as="geometry">
            <mxPoint x="550" y="740" as="sourcePoint" />
            <mxPoint x="549.75" y="570" as="targetPoint" />
          </mxGeometry>
        </mxCell>
        <mxCell id="7DsPn4_nwZbXOxPFbN1_-13" value="" style="ellipse;whiteSpace=wrap;html=1;aspect=fixed;verticalAlign=middle;align=center;" vertex="1" parent="1">
          <mxGeometry x="535" y="660" width="30" height="30" as="geometry" />
        </mxCell>
        <mxCell id="7DsPn4_nwZbXOxPFbN1_-16" value="Actor" style="shape=umlActor;verticalLabelPosition=bottom;verticalAlign=top;html=1;outlineConnect=0;" vertex="1" parent="1">
          <mxGeometry x="720" y="380" width="30" height="60" as="geometry" />
        </mxCell>
        <mxCell id="7DsPn4_nwZbXOxPFbN1_-19" value="" style="shape=actor;whiteSpace=wrap;html=1;" vertex="1" parent="1">
          <mxGeometry x="468.5" y="425" width="33" height="40" as="geometry" />
        </mxCell>
        <mxCell id="7DsPn4_nwZbXOxPFbN1_-23" value="" style="endArrow=classic;html=1;rounded=0;exitX=0.5;exitY=0;exitDx=0;exitDy=0;entryX=0.5;entryY=1;entryDx=0;entryDy=0;" edge="1" parent="1" source="7DsPn4_nwZbXOxPFbN1_-28" target="7DsPn4_nwZbXOxPFbN1_-22">
          <mxGeometry width="50" height="50" relative="1" as="geometry">
            <mxPoint x="406" y="540" as="sourcePoint" />
            <mxPoint x="364" y="390" as="targetPoint" />
          </mxGeometry>
        </mxCell>
        <mxCell id="7DsPn4_nwZbXOxPFbN1_-22" value="" style="ellipse;whiteSpace=wrap;html=1;aspect=fixed;verticalAlign=middle;align=center;" vertex="1" parent="1">
          <mxGeometry x="532.25" y="417.5" width="35" height="35" as="geometry" />
        </mxCell>
        <mxCell id="7DsPn4_nwZbXOxPFbN1_-29" value="" style="endArrow=classic;html=1;rounded=0;exitX=0.5;exitY=0;exitDx=0;exitDy=0;entryX=0.5;entryY=1;entryDx=0;entryDy=0;" edge="1" parent="1" source="7DsPn4_nwZbXOxPFbN1_-13" target="7DsPn4_nwZbXOxPFbN1_-28">
          <mxGeometry width="50" height="50" relative="1" as="geometry">
            <mxPoint x="550" y="600" as="sourcePoint" />
            <mxPoint x="550" y="453" as="targetPoint" />
          </mxGeometry>
        </mxCell>
        <mxCell id="7DsPn4_nwZbXOxPFbN1_-28" value="" style="ellipse;whiteSpace=wrap;html=1;aspect=fixed;verticalAlign=middle;align=center;" vertex="1" parent="1">
          <mxGeometry x="532.5" y="480" width="35" height="35" as="geometry" />
        </mxCell>
        <mxCell id="7DsPn4_nwZbXOxPFbN1_-30" value="" style="endArrow=classic;html=1;rounded=0;exitX=0;exitY=0.5;exitDx=0;exitDy=0;entryX=1;entryY=0.5;entryDx=0;entryDy=0;" edge="1" parent="1" source="7DsPn4_nwZbXOxPFbN1_-11" target="7DsPn4_nwZbXOxPFbN1_-28">
          <mxGeometry width="50" height="50" relative="1" as="geometry">
            <mxPoint x="310" y="570" as="sourcePoint" />
            <mxPoint x="360" y="520" as="targetPoint" />
          </mxGeometry>
        </mxCell>
        <mxCell id="7DsPn4_nwZbXOxPFbN1_-36" value="merge" style="edgeLabel;html=1;align=center;verticalAlign=middle;resizable=0;points=[];" vertex="1" connectable="0" parent="7DsPn4_nwZbXOxPFbN1_-30">
          <mxGeometry x="0.2004" y="-2" relative="1" as="geometry">
            <mxPoint x="6" y="1" as="offset" />
          </mxGeometry>
        </mxCell>
        <mxCell id="7DsPn4_nwZbXOxPFbN1_-32" value="do work" style="rounded=1;whiteSpace=wrap;html=1;" vertex="1" parent="1">
          <mxGeometry x="910" y="750" width="40" height="40" as="geometry" />
        </mxCell>
        <mxCell id="7DsPn4_nwZbXOxPFbN1_-33" value="" style="endArrow=classic;html=1;rounded=0;entryX=0.5;entryY=1;entryDx=0;entryDy=0;exitX=0.5;exitY=0;exitDx=0;exitDy=0;" edge="1" parent="1" source="7DsPn4_nwZbXOxPFbN1_-37" target="7DsPn4_nwZbXOxPFbN1_-32">
          <mxGeometry width="50" height="50" relative="1" as="geometry">
            <mxPoint x="495" y="720" as="sourcePoint" />
            <mxPoint x="930" y="790" as="targetPoint" />
          </mxGeometry>
        </mxCell>
        <mxCell id="7DsPn4_nwZbXOxPFbN1_-37" value="add lock on project&amp;nbsp;" style="rounded=1;whiteSpace=wrap;html=1;" vertex="1" parent="1">
          <mxGeometry x="906.5" y="820" width="47" height="40" as="geometry" />
        </mxCell>
        <mxCell id="7DsPn4_nwZbXOxPFbN1_-40" value="unlock" style="rounded=1;whiteSpace=wrap;html=1;" vertex="1" parent="1">
          <mxGeometry x="580" y="417.5" width="40" height="40" as="geometry" />
        </mxCell>
        <mxCell id="7DsPn4_nwZbXOxPFbN1_-47" value="merge" style="rounded=1;whiteSpace=wrap;html=1;" vertex="1" parent="1">
          <mxGeometry x="910" y="680" width="40" height="40" as="geometry" />
        </mxCell>
        <mxCell id="7DsPn4_nwZbXOxPFbN1_-53" value="success?" style="rhombus;whiteSpace=wrap;html=1;" vertex="1" parent="1">
          <mxGeometry x="890" y="507.5" width="80" height="80" as="geometry" />
        </mxCell>
        <mxCell id="7DsPn4_nwZbXOxPFbN1_-54" value="" style="endArrow=classic;html=1;rounded=0;entryX=0.5;entryY=1;entryDx=0;entryDy=0;exitX=0.5;exitY=0;exitDx=0;exitDy=0;" edge="1" parent="1" source="7DsPn4_nwZbXOxPFbN1_-56" target="7DsPn4_nwZbXOxPFbN1_-53">
          <mxGeometry width="50" height="50" relative="1" as="geometry">
            <mxPoint x="970" y="590" as="sourcePoint" />
            <mxPoint x="1050" y="420" as="targetPoint" />
          </mxGeometry>
        </mxCell>
        <mxCell id="7DsPn4_nwZbXOxPFbN1_-55" value="" style="endArrow=classic;html=1;rounded=0;exitX=0.5;exitY=0;exitDx=0;exitDy=0;entryX=0.5;entryY=1;entryDx=0;entryDy=0;" edge="1" parent="1" source="7DsPn4_nwZbXOxPFbN1_-32" target="7DsPn4_nwZbXOxPFbN1_-47">
          <mxGeometry width="50" height="50" relative="1" as="geometry">
            <mxPoint x="980" y="730" as="sourcePoint" />
            <mxPoint x="1030" y="680" as="targetPoint" />
          </mxGeometry>
        </mxCell>
        <mxCell id="7DsPn4_nwZbXOxPFbN1_-58" value="" style="endArrow=classic;html=1;rounded=0;exitX=0.5;exitY=0;exitDx=0;exitDy=0;" edge="1" parent="1" source="7DsPn4_nwZbXOxPFbN1_-53">
          <mxGeometry width="50" height="50" relative="1" as="geometry">
            <mxPoint x="960" y="437.5" as="sourcePoint" />
            <mxPoint x="930" y="457.5" as="targetPoint" />
          </mxGeometry>
        </mxCell>
        <mxCell id="7DsPn4_nwZbXOxPFbN1_-59" value="yes" style="edgeLabel;html=1;align=center;verticalAlign=middle;resizable=0;points=[];" vertex="1" connectable="0" parent="7DsPn4_nwZbXOxPFbN1_-58">
          <mxGeometry x="-0.1161" y="2" relative="1" as="geometry">
            <mxPoint as="offset" />
          </mxGeometry>
        </mxCell>
        <mxCell id="7DsPn4_nwZbXOxPFbN1_-60" value="" style="endArrow=classic;html=1;rounded=0;exitX=1;exitY=0.5;exitDx=0;exitDy=0;entryX=0.5;entryY=1;entryDx=0;entryDy=0;" edge="1" parent="1" source="7DsPn4_nwZbXOxPFbN1_-53" target="7DsPn4_nwZbXOxPFbN1_-65">
          <mxGeometry width="50" height="50" relative="1" as="geometry">
            <mxPoint x="1050" y="557.5" as="sourcePoint" />
            <mxPoint x="1020" y="457.5" as="targetPoint" />
            <Array as="points">
              <mxPoint x="1020" y="547.5" />
            </Array>
          </mxGeometry>
        </mxCell>
        <mxCell id="7DsPn4_nwZbXOxPFbN1_-61" value="fail" style="edgeLabel;html=1;align=center;verticalAlign=middle;resizable=0;points=[];" vertex="1" connectable="0" parent="7DsPn4_nwZbXOxPFbN1_-60">
          <mxGeometry x="0.1943" y="-2" relative="1" as="geometry">
            <mxPoint as="offset" />
          </mxGeometry>
        </mxCell>
        <mxCell id="7DsPn4_nwZbXOxPFbN1_-63" value="unlock" style="rounded=1;whiteSpace=wrap;html=1;" vertex="1" parent="1">
          <mxGeometry x="970" y="557.5" width="40" height="40" as="geometry" />
        </mxCell>
        <mxCell id="7DsPn4_nwZbXOxPFbN1_-64" value="" style="endArrow=classic;html=1;rounded=0;exitX=0.5;exitY=0;exitDx=0;exitDy=0;entryX=0.5;entryY=1;entryDx=0;entryDy=0;" edge="1" parent="1" source="7DsPn4_nwZbXOxPFbN1_-56" target="7DsPn4_nwZbXOxPFbN1_-63">
          <mxGeometry width="50" height="50" relative="1" as="geometry">
            <mxPoint x="990" y="700" as="sourcePoint" />
            <mxPoint x="988" y="630" as="targetPoint" />
            <Array as="points">
              <mxPoint x="940" y="640" />
              <mxPoint x="980" y="630" />
            </Array>
          </mxGeometry>
        </mxCell>
        <mxCell id="7DsPn4_nwZbXOxPFbN1_-65" value="set status=fail" style="rounded=1;whiteSpace=wrap;html=1;" vertex="1" parent="1">
          <mxGeometry x="1000" y="452.5" width="40" height="40" as="geometry" />
        </mxCell>
        <mxCell id="7DsPn4_nwZbXOxPFbN1_-66" value="" style="ellipse;whiteSpace=wrap;html=1;aspect=fixed;" vertex="1" parent="1">
          <mxGeometry x="300" y="980" width="40" height="40" as="geometry" />
        </mxCell>
        <mxCell id="7DsPn4_nwZbXOxPFbN1_-67" value="tasks of project X" style="text;html=1;align=center;verticalAlign=middle;whiteSpace=wrap;rounded=0;" vertex="1" parent="1">
          <mxGeometry x="365" y="925" width="60" height="30" as="geometry" />
        </mxCell>
        <mxCell id="7DsPn4_nwZbXOxPFbN1_-68" value="fail" style="ellipse;whiteSpace=wrap;html=1;aspect=fixed;fillColor=#f8cecc;strokeColor=#b85450;" vertex="1" parent="1">
          <mxGeometry x="380" y="980" width="40" height="40" as="geometry" />
        </mxCell>
        <mxCell id="7DsPn4_nwZbXOxPFbN1_-69" value="" style="ellipse;whiteSpace=wrap;html=1;aspect=fixed;" vertex="1" parent="1">
          <mxGeometry x="495" y="1030" width="40" height="40" as="geometry" />
        </mxCell>
        <mxCell id="7DsPn4_nwZbXOxPFbN1_-70" value="" style="endArrow=classic;html=1;rounded=0;exitX=1;exitY=0.5;exitDx=0;exitDy=0;entryX=0;entryY=0.5;entryDx=0;entryDy=0;" edge="1" parent="1" source="7DsPn4_nwZbXOxPFbN1_-66" target="7DsPn4_nwZbXOxPFbN1_-68">
          <mxGeometry width="50" height="50" relative="1" as="geometry">
            <mxPoint x="360" y="980" as="sourcePoint" />
            <mxPoint x="410" y="930" as="targetPoint" />
          </mxGeometry>
        </mxCell>
        <mxCell id="7DsPn4_nwZbXOxPFbN1_-71" value="" style="endArrow=classic;html=1;rounded=0;exitX=1;exitY=1;exitDx=0;exitDy=0;entryX=0;entryY=0.5;entryDx=0;entryDy=0;" edge="1" parent="1" source="7DsPn4_nwZbXOxPFbN1_-68" target="7DsPn4_nwZbXOxPFbN1_-69">
          <mxGeometry width="50" height="50" relative="1" as="geometry">
            <mxPoint x="480" y="1010" as="sourcePoint" />
            <mxPoint x="530" y="960" as="targetPoint" />
          </mxGeometry>
        </mxCell>
        <mxCell id="7DsPn4_nwZbXOxPFbN1_-72" value="" style="endArrow=classic;html=1;rounded=0;exitX=1;exitY=0.5;exitDx=0;exitDy=0;" edge="1" parent="1" source="7DsPn4_nwZbXOxPFbN1_-69">
          <mxGeometry width="50" height="50" relative="1" as="geometry">
            <mxPoint x="560" y="1010" as="sourcePoint" />
            <mxPoint x="570" y="1040" as="targetPoint" />
          </mxGeometry>
        </mxCell>
        <mxCell id="7DsPn4_nwZbXOxPFbN1_-73" value="cancel" style="ellipse;whiteSpace=wrap;html=1;aspect=fixed;fillColor=#fff2cc;strokeColor=#d6b656;" vertex="1" parent="1">
          <mxGeometry x="495" y="920" width="40" height="40" as="geometry" />
        </mxCell>
        <mxCell id="7DsPn4_nwZbXOxPFbN1_-74" value="" style="endArrow=classic;html=1;rounded=0;exitX=1;exitY=0;exitDx=0;exitDy=0;entryX=0;entryY=0.5;entryDx=0;entryDy=0;" edge="1" parent="1" source="7DsPn4_nwZbXOxPFbN1_-68" target="7DsPn4_nwZbXOxPFbN1_-73">
          <mxGeometry width="50" height="50" relative="1" as="geometry">
            <mxPoint x="420" y="940" as="sourcePoint" />
            <mxPoint x="470" y="890" as="targetPoint" />
          </mxGeometry>
        </mxCell>
        <mxCell id="7DsPn4_nwZbXOxPFbN1_-75" value="" style="ellipse;whiteSpace=wrap;html=1;aspect=fixed;" vertex="1" parent="1">
          <mxGeometry x="610" y="980" width="40" height="40" as="geometry" />
        </mxCell>
        <mxCell id="7DsPn4_nwZbXOxPFbN1_-76" value="" style="endArrow=classic;html=1;rounded=0;exitX=1;exitY=0.5;exitDx=0;exitDy=0;entryX=0;entryY=0;entryDx=0;entryDy=0;" edge="1" parent="1" source="7DsPn4_nwZbXOxPFbN1_-73" target="7DsPn4_nwZbXOxPFbN1_-75">
          <mxGeometry width="50" height="50" relative="1" as="geometry">
            <mxPoint x="570" y="930" as="sourcePoint" />
            <mxPoint x="620" y="880" as="targetPoint" />
          </mxGeometry>
        </mxCell>
        <mxCell id="7DsPn4_nwZbXOxPFbN1_-77" value="" style="endArrow=classic;html=1;rounded=0;exitX=1;exitY=0.5;exitDx=0;exitDy=0;" edge="1" parent="1" source="7DsPn4_nwZbXOxPFbN1_-75">
          <mxGeometry width="50" height="50" relative="1" as="geometry">
            <mxPoint x="700" y="940" as="sourcePoint" />
            <mxPoint x="710" y="1000" as="targetPoint" />
          </mxGeometry>
        </mxCell>
        <mxCell id="7DsPn4_nwZbXOxPFbN1_-78" value="" style="verticalLabelPosition=bottom;verticalAlign=top;html=1;shape=mxgraph.basic.x;fillColor=default;strokeColor=default;fontColor=#ffffff;" vertex="1" parent="1">
          <mxGeometry x="437" y="1016" width="32" height="26" as="geometry" />
        </mxCell>
        <mxCell id="7DsPn4_nwZbXOxPFbN1_-79" value="" style="shape=singleArrow;direction=north;whiteSpace=wrap;html=1;rotation=0;arrowWidth=0.47857346307664556;arrowSize=0.5619066995287691;" vertex="1" parent="1">
          <mxGeometry x="495" y="980" width="40" height="30" as="geometry" />
        </mxCell>
        <mxCell id="7DsPn4_nwZbXOxPFbN1_-83" value="" style="endArrow=classic;html=1;rounded=0;" edge="1" parent="1">
          <mxGeometry width="50" height="50" relative="1" as="geometry">
            <mxPoint x="130" y="840" as="sourcePoint" />
            <mxPoint x="130" y="680" as="targetPoint" />
          </mxGeometry>
        </mxCell>
        <mxCell id="7DsPn4_nwZbXOxPFbN1_-84" value="history&lt;div&gt;HEAD&lt;/div&gt;" style="edgeLabel;html=1;align=center;verticalAlign=middle;resizable=0;points=[];" vertex="1" connectable="0" parent="7DsPn4_nwZbXOxPFbN1_-83">
          <mxGeometry x="-0.0429" y="1" relative="1" as="geometry">
            <mxPoint x="-29" y="-33" as="offset" />
          </mxGeometry>
        </mxCell>
        <mxCell id="7DsPn4_nwZbXOxPFbN1_-115" value="tasks" style="edgeLabel;html=1;align=center;verticalAlign=middle;resizable=0;points=[];" vertex="1" connectable="0" parent="7DsPn4_nwZbXOxPFbN1_-83">
          <mxGeometry x="0.7289" relative="1" as="geometry">
            <mxPoint as="offset" />
          </mxGeometry>
        </mxCell>
        <mxCell id="7DsPn4_nwZbXOxPFbN1_-85" value="" style="endArrow=classic;html=1;rounded=0;" edge="1" parent="1">
          <mxGeometry width="50" height="50" relative="1" as="geometry">
            <mxPoint x="130" y="840" as="sourcePoint" />
            <mxPoint x="300" y="840" as="targetPoint" />
          </mxGeometry>
        </mxCell>
        <mxCell id="7DsPn4_nwZbXOxPFbN1_-86" value="directory&lt;div&gt;leaf&lt;/div&gt;" style="edgeLabel;html=1;align=center;verticalAlign=middle;resizable=0;points=[];" vertex="1" connectable="0" parent="7DsPn4_nwZbXOxPFbN1_-85">
          <mxGeometry x="0.0589" y="-1" relative="1" as="geometry">
            <mxPoint x="36" y="-1" as="offset" />
          </mxGeometry>
        </mxCell>
        <mxCell id="7DsPn4_nwZbXOxPFbN1_-90" value="change property&lt;div&gt;task&lt;/div&gt;" style="text;html=1;align=center;verticalAlign=middle;whiteSpace=wrap;rounded=0;" vertex="1" parent="1">
          <mxGeometry x="294.73" y="750" width="39" height="30" as="geometry" />
        </mxCell>
        <mxCell id="7DsPn4_nwZbXOxPFbN1_-91" value="" style="endArrow=classic;html=1;rounded=0;entryX=1;entryY=0;entryDx=0;entryDy=0;exitX=0;exitY=1;exitDx=0;exitDy=0;" edge="1" parent="1" source="7DsPn4_nwZbXOxPFbN1_-96" target="7DsPn4_nwZbXOxPFbN1_-88">
          <mxGeometry width="50" height="50" relative="1" as="geometry">
            <mxPoint x="43.620000000000005" y="750" as="sourcePoint" />
            <mxPoint x="-4.999999999999886" y="778.2599999999998" as="targetPoint" />
          </mxGeometry>
        </mxCell>
        <mxCell id="7DsPn4_nwZbXOxPFbN1_-95" value="" style="endArrow=classic;html=1;rounded=0;entryX=1;entryY=0;entryDx=0;entryDy=0;exitX=0;exitY=1;exitDx=0;exitDy=0;" edge="1" parent="1" source="7DsPn4_nwZbXOxPFbN1_-90" target="7DsPn4_nwZbXOxPFbN1_-93">
          <mxGeometry width="50" height="50" relative="1" as="geometry">
            <mxPoint x="259.5" y="799" as="sourcePoint" />
            <mxPoint x="210.5" y="782" as="targetPoint" />
          </mxGeometry>
        </mxCell>
        <mxCell id="7DsPn4_nwZbXOxPFbN1_-96" value="&lt;div&gt;current task status&lt;/div&gt;" style="text;html=1;align=center;verticalAlign=middle;whiteSpace=wrap;rounded=0;" vertex="1" parent="1">
          <mxGeometry x="222.5" y="670" width="40" height="30" as="geometry" />
        </mxCell>
        <mxCell id="7DsPn4_nwZbXOxPFbN1_-99" value="" style="endArrow=none;dashed=1;html=1;rounded=0;" edge="1" parent="1">
          <mxGeometry width="50" height="50" relative="1" as="geometry">
            <mxPoint x="130" y="730" as="sourcePoint" />
            <mxPoint x="230" y="730" as="targetPoint" />
          </mxGeometry>
        </mxCell>
        <mxCell id="7DsPn4_nwZbXOxPFbN1_-100" value="" style="endArrow=classic;html=1;rounded=0;" edge="1" parent="1">
          <mxGeometry width="50" height="50" relative="1" as="geometry">
            <mxPoint x="130" y="840" as="sourcePoint" />
            <mxPoint x="30" y="900" as="targetPoint" />
          </mxGeometry>
        </mxCell>
        <mxCell id="7DsPn4_nwZbXOxPFbN1_-101" value="project" style="edgeLabel;html=1;align=center;verticalAlign=middle;resizable=0;points=[];" vertex="1" connectable="0" parent="7DsPn4_nwZbXOxPFbN1_-100">
          <mxGeometry x="0.6242" y="2" relative="1" as="geometry">
            <mxPoint x="10" y="-11" as="offset" />
          </mxGeometry>
        </mxCell>
        <mxCell id="7DsPn4_nwZbXOxPFbN1_-102" value="" style="endArrow=none;dashed=1;html=1;rounded=0;" edge="1" parent="1">
          <mxGeometry width="50" height="50" relative="1" as="geometry">
            <mxPoint x="190" y="840" as="sourcePoint" />
            <mxPoint x="190" y="673.2000558035714" as="targetPoint" />
          </mxGeometry>
        </mxCell>
        <mxCell id="7DsPn4_nwZbXOxPFbN1_-109" value="" style="endArrow=none;dashed=1;html=1;rounded=0;" edge="1" parent="1">
          <mxGeometry width="50" height="50" relative="1" as="geometry">
            <mxPoint x="80" y="870" as="sourcePoint" />
            <mxPoint x="140" y="870" as="targetPoint" />
          </mxGeometry>
        </mxCell>
        <mxCell id="7DsPn4_nwZbXOxPFbN1_-110" value="" style="endArrow=none;dashed=1;html=1;rounded=0;" edge="1" parent="1">
          <mxGeometry width="50" height="50" relative="1" as="geometry">
            <mxPoint x="140" y="870" as="sourcePoint" />
            <mxPoint x="140" y="760" as="targetPoint" />
          </mxGeometry>
        </mxCell>
        <mxCell id="7DsPn4_nwZbXOxPFbN1_-111" value="" style="endArrow=none;dashed=1;html=1;rounded=0;" edge="1" parent="1">
          <mxGeometry width="50" height="50" relative="1" as="geometry">
            <mxPoint x="130" y="810" as="sourcePoint" />
            <mxPoint x="230" y="810" as="targetPoint" />
          </mxGeometry>
        </mxCell>
        <mxCell id="7DsPn4_nwZbXOxPFbN1_-112" value="hash1" style="text;html=1;align=center;verticalAlign=middle;whiteSpace=wrap;rounded=0;" vertex="1" parent="1">
          <mxGeometry x="88" y="801" width="30" height="15" as="geometry" />
        </mxCell>
        <mxCell id="7DsPn4_nwZbXOxPFbN1_-113" value="hash1=status" style="text;html=1;align=center;verticalAlign=middle;whiteSpace=wrap;rounded=0;" vertex="1" parent="1">
          <mxGeometry x="141.5" y="635" width="97.5" height="15" as="geometry" />
        </mxCell>
        <mxCell id="7DsPn4_nwZbXOxPFbN1_-88" value="" style="ellipse;whiteSpace=wrap;html=1;aspect=fixed;" vertex="1" parent="1">
          <mxGeometry x="179" y="720" width="20" height="20" as="geometry" />
        </mxCell>
        <mxCell id="7DsPn4_nwZbXOxPFbN1_-104" value="" style="endArrow=none;dashed=1;html=1;rounded=0;" edge="1" parent="1">
          <mxGeometry width="50" height="50" relative="1" as="geometry">
            <mxPoint x="140" y="760" as="sourcePoint" />
            <mxPoint x="184" y="734" as="targetPoint" />
          </mxGeometry>
        </mxCell>
        <mxCell id="7DsPn4_nwZbXOxPFbN1_-93" value="" style="ellipse;whiteSpace=wrap;html=1;aspect=fixed;" vertex="1" parent="1">
          <mxGeometry x="180" y="800" width="20" height="20" as="geometry" />
        </mxCell>
        <mxCell id="7DsPn4_nwZbXOxPFbN1_-103" value="" style="endArrow=none;dashed=1;html=1;rounded=0;" edge="1" parent="1">
          <mxGeometry width="50" height="50" relative="1" as="geometry">
            <mxPoint x="140" y="840" as="sourcePoint" />
            <mxPoint x="185" y="813" as="targetPoint" />
          </mxGeometry>
        </mxCell>
        <mxCell id="7DsPn4_nwZbXOxPFbN1_-117" value="" style="endArrow=none;dashed=1;html=1;rounded=0;" edge="1" parent="1">
          <mxGeometry width="50" height="50" relative="1" as="geometry">
            <mxPoint x="142" y="869" as="sourcePoint" />
            <mxPoint x="187" y="842" as="targetPoint" />
          </mxGeometry>
        </mxCell>
        <mxCell id="7DsPn4_nwZbXOxPFbN1_-118" value="" style="endArrow=classic;html=1;rounded=0;exitX=1;exitY=0;exitDx=0;exitDy=0;" edge="1" parent="1" source="7DsPn4_nwZbXOxPFbN1_-93">
          <mxGeometry width="50" height="50" relative="1" as="geometry">
            <mxPoint x="210" y="780" as="sourcePoint" />
            <mxPoint x="350" y="660" as="targetPoint" />
          </mxGeometry>
        </mxCell>
        <mxCell id="7DsPn4_nwZbXOxPFbN1_-120" value="" style="endArrow=classic;html=1;rounded=0;exitX=1;exitY=0.5;exitDx=0;exitDy=0;entryX=0.5;entryY=1;entryDx=0;entryDy=0;" edge="1" parent="1" source="7DsPn4_nwZbXOxPFbN1_-121" target="7DsPn4_nwZbXOxPFbN1_-123">
          <mxGeometry width="50" height="50" relative="1" as="geometry">
            <mxPoint x="-20" y="881" as="sourcePoint" />
            <mxPoint x="30" y="801" as="targetPoint" />
            <Array as="points">
              <mxPoint x="-90" y="880" />
            </Array>
          </mxGeometry>
        </mxCell>
        <mxCell id="7DsPn4_nwZbXOxPFbN1_-121" value="" style="ellipse;whiteSpace=wrap;html=1;aspect=fixed;" vertex="1" parent="1">
          <mxGeometry x="-170" y="880" width="20" height="20" as="geometry" />
        </mxCell>
        <mxCell id="7DsPn4_nwZbXOxPFbN1_-122" value="state" style="text;html=1;align=center;verticalAlign=middle;whiteSpace=wrap;rounded=0;" vertex="1" parent="1">
          <mxGeometry x="-205.5" y="880" width="29" height="20" as="geometry" />
        </mxCell>
        <mxCell id="7DsPn4_nwZbXOxPFbN1_-123" value="" style="ellipse;whiteSpace=wrap;html=1;aspect=fixed;" vertex="1" parent="1">
          <mxGeometry x="-90" y="842.5" width="20" height="20" as="geometry" />
        </mxCell>
        <mxCell id="7DsPn4_nwZbXOxPFbN1_-124" value="request" style="text;html=1;align=center;verticalAlign=middle;whiteSpace=wrap;rounded=0;" vertex="1" parent="1">
          <mxGeometry x="-65" y="845" width="50" height="15" as="geometry" />
        </mxCell>
        <mxCell id="7DsPn4_nwZbXOxPFbN1_-125" value="" style="ellipse;whiteSpace=wrap;html=1;aspect=fixed;" vertex="1" parent="1">
          <mxGeometry x="-171.5" y="799" width="21" height="21" as="geometry" />
        </mxCell>
        <mxCell id="7DsPn4_nwZbXOxPFbN1_-126" value="" style="endArrow=classic;html=1;rounded=0;exitX=0.5;exitY=0;exitDx=0;exitDy=0;entryX=0.5;entryY=1;entryDx=0;entryDy=0;" edge="1" parent="1" source="7DsPn4_nwZbXOxPFbN1_-121" target="7DsPn4_nwZbXOxPFbN1_-125">
          <mxGeometry width="50" height="50" relative="1" as="geometry">
            <mxPoint x="-240" y="890" as="sourcePoint" />
            <mxPoint x="-190" y="840" as="targetPoint" />
          </mxGeometry>
        </mxCell>
        <mxCell id="7DsPn4_nwZbXOxPFbN1_-128" value="lock" style="text;html=1;align=center;verticalAlign=middle;whiteSpace=wrap;rounded=0;" vertex="1" parent="1">
          <mxGeometry x="-70" y="799" width="40" height="12" as="geometry" />
        </mxCell>
        <mxCell id="7DsPn4_nwZbXOxPFbN1_-129" value="" style="ellipse;whiteSpace=wrap;html=1;aspect=fixed;" vertex="1" parent="1">
          <mxGeometry x="-171.5" y="747.5" width="20" height="20" as="geometry" />
        </mxCell>
        <mxCell id="7DsPn4_nwZbXOxPFbN1_-131" value="" style="endArrow=classic;html=1;rounded=0;exitX=0.5;exitY=0;exitDx=0;exitDy=0;entryX=0.5;entryY=1;entryDx=0;entryDy=0;" edge="1" parent="1" source="7DsPn4_nwZbXOxPFbN1_-125" target="7DsPn4_nwZbXOxPFbN1_-129">
          <mxGeometry width="50" height="50" relative="1" as="geometry">
            <mxPoint x="-120" y="780" as="sourcePoint" />
            <mxPoint x="-70" y="730" as="targetPoint" />
          </mxGeometry>
        </mxCell>
        <mxCell id="7DsPn4_nwZbXOxPFbN1_-133" value="" style="endArrow=none;dashed=1;html=1;rounded=0;" edge="1" parent="1">
          <mxGeometry width="50" height="50" relative="1" as="geometry">
            <mxPoint x="-230" y="780" as="sourcePoint" />
            <mxPoint x="-20" y="790" as="targetPoint" />
          </mxGeometry>
        </mxCell>
        <mxCell id="7DsPn4_nwZbXOxPFbN1_-134" value="success" style="text;html=1;align=center;verticalAlign=middle;whiteSpace=wrap;rounded=0;rotation=15;" vertex="1" parent="1">
          <mxGeometry x="-249" y="762.5" width="60" height="15" as="geometry" />
        </mxCell>
        <mxCell id="7DsPn4_nwZbXOxPFbN1_-137" value="" style="ellipse;whiteSpace=wrap;html=1;aspect=fixed;" vertex="1" parent="1">
          <mxGeometry x="-90" y="747.5" width="20" height="20" as="geometry" />
        </mxCell>
        <mxCell id="7DsPn4_nwZbXOxPFbN1_-138" value="unlock" style="text;html=1;align=center;verticalAlign=middle;whiteSpace=wrap;rounded=0;" vertex="1" parent="1">
          <mxGeometry x="-65" y="750" width="40" height="15" as="geometry" />
        </mxCell>
        <mxCell id="7DsPn4_nwZbXOxPFbN1_-139" value="" style="endArrow=classic;html=1;rounded=0;exitX=0.5;exitY=0;exitDx=0;exitDy=0;entryX=0.5;entryY=1;entryDx=0;entryDy=0;" edge="1" parent="1" source="7DsPn4_nwZbXOxPFbN1_-150" target="7DsPn4_nwZbXOxPFbN1_-137">
          <mxGeometry width="50" height="50" relative="1" as="geometry">
            <mxPoint x="-130" y="750" as="sourcePoint" />
            <mxPoint x="-80" y="710" as="targetPoint" />
          </mxGeometry>
        </mxCell>
        <mxCell id="7DsPn4_nwZbXOxPFbN1_-141" value="" style="endArrow=none;dashed=1;html=1;rounded=0;" edge="1" parent="1">
          <mxGeometry width="50" height="50" relative="1" as="geometry">
            <mxPoint x="-220" y="860" as="sourcePoint" />
            <mxPoint x="-50" y="830" as="targetPoint" />
          </mxGeometry>
        </mxCell>
        <mxCell id="7DsPn4_nwZbXOxPFbN1_-142" value="start" style="text;html=1;align=center;verticalAlign=middle;whiteSpace=wrap;rounded=0;rotation=-20;" vertex="1" parent="1">
          <mxGeometry x="-239.99999999999997" y="842.5" width="51" height="10" as="geometry" />
        </mxCell>
        <mxCell id="7DsPn4_nwZbXOxPFbN1_-144" value="" style="endArrow=classic;html=1;rounded=0;exitX=0;exitY=0.5;exitDx=0;exitDy=0;entryX=1;entryY=0.5;entryDx=0;entryDy=0;" edge="1" parent="1" source="7DsPn4_nwZbXOxPFbN1_-137" target="7DsPn4_nwZbXOxPFbN1_-129">
          <mxGeometry width="50" height="50" relative="1" as="geometry">
            <mxPoint x="-160" y="740" as="sourcePoint" />
            <mxPoint x="-110" y="690" as="targetPoint" />
          </mxGeometry>
        </mxCell>
        <mxCell id="7DsPn4_nwZbXOxPFbN1_-145" value="merge" style="edgeLabel;html=1;align=center;verticalAlign=middle;resizable=0;points=[];" vertex="1" connectable="0" parent="7DsPn4_nwZbXOxPFbN1_-144">
          <mxGeometry x="0.0304" relative="1" as="geometry">
            <mxPoint x="5" as="offset" />
          </mxGeometry>
        </mxCell>
        <mxCell id="7DsPn4_nwZbXOxPFbN1_-146" value="" style="endArrow=none;dashed=1;html=1;rounded=0;" edge="1" parent="1">
          <mxGeometry width="50" height="50" relative="1" as="geometry">
            <mxPoint x="-230" y="720" as="sourcePoint" />
            <mxPoint x="-80" y="730" as="targetPoint" />
          </mxGeometry>
        </mxCell>
        <mxCell id="7DsPn4_nwZbXOxPFbN1_-147" value="" style="endArrow=classic;html=1;rounded=0;exitX=0.5;exitY=0;exitDx=0;exitDy=0;" edge="1" parent="1" source="7DsPn4_nwZbXOxPFbN1_-129">
          <mxGeometry width="50" height="50" relative="1" as="geometry">
            <mxPoint x="-170" y="690" as="sourcePoint" />
            <mxPoint x="-161" y="660" as="targetPoint" />
          </mxGeometry>
        </mxCell>
        <mxCell id="7DsPn4_nwZbXOxPFbN1_-148" value="committed" style="text;html=1;align=center;verticalAlign=middle;whiteSpace=wrap;rounded=0;rotation=5;" vertex="1" parent="1">
          <mxGeometry x="-239.56" y="700.02" width="60" height="20" as="geometry" />
        </mxCell>
        <mxCell id="7DsPn4_nwZbXOxPFbN1_-151" value="" style="endArrow=classic;html=1;rounded=0;exitX=0.5;exitY=0;exitDx=0;exitDy=0;entryX=0.5;entryY=1;entryDx=0;entryDy=0;" edge="1" parent="1" source="7DsPn4_nwZbXOxPFbN1_-123" target="7DsPn4_nwZbXOxPFbN1_-150">
          <mxGeometry width="50" height="50" relative="1" as="geometry">
            <mxPoint x="-80" y="843" as="sourcePoint" />
            <mxPoint x="-80" y="768" as="targetPoint" />
          </mxGeometry>
        </mxCell>
        <mxCell id="7DsPn4_nwZbXOxPFbN1_-150" value="" style="ellipse;whiteSpace=wrap;html=1;aspect=fixed;" vertex="1" parent="1">
          <mxGeometry x="-90" y="796" width="20" height="20" as="geometry" />
        </mxCell>
        <mxCell id="7DsPn4_nwZbXOxPFbN1_-152" value="" style="endArrow=classic;html=1;rounded=0;exitX=0;exitY=0.5;exitDx=0;exitDy=0;entryX=1;entryY=0.5;entryDx=0;entryDy=0;" edge="1" parent="1" source="7DsPn4_nwZbXOxPFbN1_-150" target="7DsPn4_nwZbXOxPFbN1_-125">
          <mxGeometry width="50" height="50" relative="1" as="geometry">
            <mxPoint x="-330" y="870" as="sourcePoint" />
            <mxPoint x="-280" y="820" as="targetPoint" />
          </mxGeometry>
        </mxCell>
        <mxCell id="7DsPn4_nwZbXOxPFbN1_-153" value="merge" style="edgeLabel;html=1;align=center;verticalAlign=middle;resizable=0;points=[];" vertex="1" connectable="0" parent="7DsPn4_nwZbXOxPFbN1_-152">
          <mxGeometry x="-0.0017" relative="1" as="geometry">
            <mxPoint x="3" as="offset" />
          </mxGeometry>
        </mxCell>
        <mxCell id="7DsPn4_nwZbXOxPFbN1_-154" value="" style="endArrow=classic;html=1;rounded=0;exitX=1;exitY=0.5;exitDx=0;exitDy=0;entryX=0.5;entryY=1;entryDx=0;entryDy=0;" edge="1" parent="1" source="7DsPn4_nwZbXOxPFbN1_-155" target="7DsPn4_nwZbXOxPFbN1_-157">
          <mxGeometry width="50" height="50" relative="1" as="geometry">
            <mxPoint x="-341" y="881" as="sourcePoint" />
            <mxPoint x="-291" y="801" as="targetPoint" />
            <Array as="points">
              <mxPoint x="-411" y="880" />
            </Array>
          </mxGeometry>
        </mxCell>
        <mxCell id="7DsPn4_nwZbXOxPFbN1_-155" value="" style="ellipse;whiteSpace=wrap;html=1;aspect=fixed;" vertex="1" parent="1">
          <mxGeometry x="-491" y="880" width="20" height="20" as="geometry" />
        </mxCell>
        <mxCell id="7DsPn4_nwZbXOxPFbN1_-156" value="state" style="text;html=1;align=center;verticalAlign=middle;whiteSpace=wrap;rounded=0;" vertex="1" parent="1">
          <mxGeometry x="-526.5" y="880" width="29" height="20" as="geometry" />
        </mxCell>
        <mxCell id="7DsPn4_nwZbXOxPFbN1_-157" value="" style="ellipse;whiteSpace=wrap;html=1;aspect=fixed;" vertex="1" parent="1">
          <mxGeometry x="-411" y="852.5" width="20" height="20" as="geometry" />
        </mxCell>
        <mxCell id="7DsPn4_nwZbXOxPFbN1_-158" value="request" style="text;html=1;align=center;verticalAlign=middle;whiteSpace=wrap;rounded=0;" vertex="1" parent="1">
          <mxGeometry x="-380" y="855" width="50" height="15" as="geometry" />
        </mxCell>
        <mxCell id="7DsPn4_nwZbXOxPFbN1_-159" value="" style="ellipse;whiteSpace=wrap;html=1;aspect=fixed;" vertex="1" parent="1">
          <mxGeometry x="-492.5" y="799" width="21" height="21" as="geometry" />
        </mxCell>
        <mxCell id="7DsPn4_nwZbXOxPFbN1_-160" value="" style="endArrow=classic;html=1;rounded=0;exitX=0.5;exitY=0;exitDx=0;exitDy=0;entryX=0.5;entryY=1;entryDx=0;entryDy=0;" edge="1" parent="1" source="7DsPn4_nwZbXOxPFbN1_-155" target="7DsPn4_nwZbXOxPFbN1_-159">
          <mxGeometry width="50" height="50" relative="1" as="geometry">
            <mxPoint x="-561" y="890" as="sourcePoint" />
            <mxPoint x="-511" y="840" as="targetPoint" />
          </mxGeometry>
        </mxCell>
        <mxCell id="7DsPn4_nwZbXOxPFbN1_-162" value="" style="ellipse;whiteSpace=wrap;html=1;aspect=fixed;" vertex="1" parent="1">
          <mxGeometry x="-492.5" y="747.5" width="20" height="20" as="geometry" />
        </mxCell>
        <mxCell id="7DsPn4_nwZbXOxPFbN1_-163" value="" style="endArrow=classic;html=1;rounded=0;exitX=0.5;exitY=0;exitDx=0;exitDy=0;entryX=0.5;entryY=1;entryDx=0;entryDy=0;" edge="1" parent="1" source="7DsPn4_nwZbXOxPFbN1_-159" target="7DsPn4_nwZbXOxPFbN1_-162">
          <mxGeometry width="50" height="50" relative="1" as="geometry">
            <mxPoint x="-441" y="780" as="sourcePoint" />
            <mxPoint x="-391" y="730" as="targetPoint" />
          </mxGeometry>
        </mxCell>
        <mxCell id="7DsPn4_nwZbXOxPFbN1_-164" value="" style="endArrow=none;dashed=1;html=1;rounded=0;" edge="1" parent="1">
          <mxGeometry width="50" height="50" relative="1" as="geometry">
            <mxPoint x="-551" y="780" as="sourcePoint" />
            <mxPoint x="-341" y="790" as="targetPoint" />
          </mxGeometry>
        </mxCell>
        <mxCell id="7DsPn4_nwZbXOxPFbN1_-165" value="success" style="text;html=1;align=center;verticalAlign=middle;whiteSpace=wrap;rounded=0;rotation=15;" vertex="1" parent="1">
          <mxGeometry x="-570" y="762.5" width="60" height="15" as="geometry" />
        </mxCell>
        <mxCell id="7DsPn4_nwZbXOxPFbN1_-169" value="" style="endArrow=none;dashed=1;html=1;rounded=0;" edge="1" parent="1">
          <mxGeometry width="50" height="50" relative="1" as="geometry">
            <mxPoint x="-541" y="860" as="sourcePoint" />
            <mxPoint x="-360" y="800" as="targetPoint" />
          </mxGeometry>
        </mxCell>
        <mxCell id="7DsPn4_nwZbXOxPFbN1_-170" value="start" style="text;html=1;align=center;verticalAlign=middle;whiteSpace=wrap;rounded=0;rotation=-20;" vertex="1" parent="1">
          <mxGeometry x="-561" y="842.5" width="51" height="10" as="geometry" />
        </mxCell>
        <mxCell id="7DsPn4_nwZbXOxPFbN1_-171" value="" style="endArrow=classic;html=1;rounded=0;entryX=1;entryY=0.5;entryDx=0;entryDy=0;exitX=0;exitY=0;exitDx=0;exitDy=0;" edge="1" parent="1" source="7DsPn4_nwZbXOxPFbN1_-157" target="7DsPn4_nwZbXOxPFbN1_-162">
          <mxGeometry width="50" height="50" relative="1" as="geometry">
            <mxPoint x="-370" y="760" as="sourcePoint" />
            <mxPoint x="-431" y="690" as="targetPoint" />
            <Array as="points">
              <mxPoint x="-430" y="770" />
            </Array>
          </mxGeometry>
        </mxCell>
        <mxCell id="7DsPn4_nwZbXOxPFbN1_-172" value="merge" style="edgeLabel;html=1;align=center;verticalAlign=middle;resizable=0;points=[];" vertex="1" connectable="0" parent="7DsPn4_nwZbXOxPFbN1_-171">
          <mxGeometry x="0.0304" relative="1" as="geometry">
            <mxPoint x="-14" y="-17" as="offset" />
          </mxGeometry>
        </mxCell>
        <mxCell id="7DsPn4_nwZbXOxPFbN1_-173" value="" style="endArrow=none;dashed=1;html=1;rounded=0;" edge="1" parent="1">
          <mxGeometry width="50" height="50" relative="1" as="geometry">
            <mxPoint x="-551" y="720" as="sourcePoint" />
            <mxPoint x="-401" y="730" as="targetPoint" />
          </mxGeometry>
        </mxCell>
        <mxCell id="7DsPn4_nwZbXOxPFbN1_-174" value="" style="endArrow=classic;html=1;rounded=0;exitX=0.5;exitY=0;exitDx=0;exitDy=0;" edge="1" parent="1" source="7DsPn4_nwZbXOxPFbN1_-187">
          <mxGeometry width="50" height="50" relative="1" as="geometry">
            <mxPoint x="-491" y="690" as="sourcePoint" />
            <mxPoint x="-482" y="660" as="targetPoint" />
          </mxGeometry>
        </mxCell>
        <mxCell id="7DsPn4_nwZbXOxPFbN1_-175" value="committed" style="text;html=1;align=center;verticalAlign=middle;whiteSpace=wrap;rounded=0;rotation=-15;" vertex="1" parent="1">
          <mxGeometry x="-560.56" y="700.02" width="60" height="20" as="geometry" />
        </mxCell>
        <mxCell id="7DsPn4_nwZbXOxPFbN1_-181" value="" style="ellipse;whiteSpace=wrap;html=1;aspect=fixed;" vertex="1" parent="1">
          <mxGeometry x="-391" y="813.5" width="20" height="20" as="geometry" />
        </mxCell>
        <mxCell id="7DsPn4_nwZbXOxPFbN1_-182" value="" style="endArrow=classic;html=1;rounded=0;entryX=0.5;entryY=1;entryDx=0;entryDy=0;exitX=1;exitY=0;exitDx=0;exitDy=0;" edge="1" parent="1" source="7DsPn4_nwZbXOxPFbN1_-157" target="7DsPn4_nwZbXOxPFbN1_-181">
          <mxGeometry width="50" height="50" relative="1" as="geometry">
            <mxPoint x="-350" y="810" as="sourcePoint" />
            <mxPoint x="-300" y="760" as="targetPoint" />
          </mxGeometry>
        </mxCell>
        <mxCell id="7DsPn4_nwZbXOxPFbN1_-183" value="request2" style="text;html=1;align=center;verticalAlign=middle;whiteSpace=wrap;rounded=0;" vertex="1" parent="1">
          <mxGeometry x="-360" y="813.5" width="50" height="15" as="geometry" />
        </mxCell>
        <mxCell id="7DsPn4_nwZbXOxPFbN1_-185" value="lock" style="text;html=1;align=center;verticalAlign=middle;whiteSpace=wrap;rounded=0;" vertex="1" parent="1">
          <mxGeometry x="-532.5" y="804" width="40" height="12" as="geometry" />
        </mxCell>
        <mxCell id="7DsPn4_nwZbXOxPFbN1_-186" value="unlock" style="text;html=1;align=center;verticalAlign=middle;whiteSpace=wrap;rounded=0;" vertex="1" parent="1">
          <mxGeometry x="-472.5" y="697.52" width="40" height="15" as="geometry" />
        </mxCell>
        <mxCell id="7DsPn4_nwZbXOxPFbN1_-188" value="" style="endArrow=classic;html=1;rounded=0;exitX=0.5;exitY=0;exitDx=0;exitDy=0;" edge="1" parent="1" source="7DsPn4_nwZbXOxPFbN1_-162" target="7DsPn4_nwZbXOxPFbN1_-187">
          <mxGeometry width="50" height="50" relative="1" as="geometry">
            <mxPoint x="-482" y="748" as="sourcePoint" />
            <mxPoint x="-482" y="660" as="targetPoint" />
          </mxGeometry>
        </mxCell>
        <mxCell id="7DsPn4_nwZbXOxPFbN1_-187" value="" style="ellipse;whiteSpace=wrap;html=1;aspect=fixed;" vertex="1" parent="1">
          <mxGeometry x="-493.5" y="692.5" width="21" height="21" as="geometry" />
        </mxCell>
        <mxCell id="7DsPn4_nwZbXOxPFbN1_-189" value="" style="endArrow=classic;html=1;rounded=0;exitX=1;exitY=0.5;exitDx=0;exitDy=0;entryX=0;entryY=1;entryDx=0;entryDy=0;" edge="1" source="7DsPn4_nwZbXOxPFbN1_-190" target="7DsPn4_nwZbXOxPFbN1_-192" parent="1">
          <mxGeometry width="50" height="50" relative="1" as="geometry">
            <mxPoint x="-651" y="881" as="sourcePoint" />
            <mxPoint x="-601" y="801" as="targetPoint" />
            <Array as="points">
              <mxPoint x="-740" y="880" />
            </Array>
          </mxGeometry>
        </mxCell>
        <mxCell id="7DsPn4_nwZbXOxPFbN1_-190" value="" style="ellipse;whiteSpace=wrap;html=1;aspect=fixed;" vertex="1" parent="1">
          <mxGeometry x="-801" y="880" width="20" height="20" as="geometry" />
        </mxCell>
        <mxCell id="7DsPn4_nwZbXOxPFbN1_-191" value="state" style="text;html=1;align=center;verticalAlign=middle;whiteSpace=wrap;rounded=0;" vertex="1" parent="1">
          <mxGeometry x="-836.5" y="880" width="29" height="20" as="geometry" />
        </mxCell>
        <mxCell id="7DsPn4_nwZbXOxPFbN1_-192" value="" style="ellipse;whiteSpace=wrap;html=1;aspect=fixed;" vertex="1" parent="1">
          <mxGeometry x="-710" y="847.5" width="20" height="20" as="geometry" />
        </mxCell>
        <mxCell id="7DsPn4_nwZbXOxPFbN1_-193" value="request=hash1" style="text;html=1;align=center;verticalAlign=middle;whiteSpace=wrap;rounded=0;" vertex="1" parent="1">
          <mxGeometry x="-680" y="850" width="50" height="15" as="geometry" />
        </mxCell>
        <mxCell id="7DsPn4_nwZbXOxPFbN1_-194" value="" style="ellipse;whiteSpace=wrap;html=1;aspect=fixed;" vertex="1" parent="1">
          <mxGeometry x="-802.5" y="799" width="21" height="21" as="geometry" />
        </mxCell>
        <mxCell id="7DsPn4_nwZbXOxPFbN1_-195" value="" style="endArrow=classic;html=1;rounded=0;exitX=0.5;exitY=0;exitDx=0;exitDy=0;entryX=0.5;entryY=1;entryDx=0;entryDy=0;" edge="1" source="7DsPn4_nwZbXOxPFbN1_-190" target="7DsPn4_nwZbXOxPFbN1_-194" parent="1">
          <mxGeometry width="50" height="50" relative="1" as="geometry">
            <mxPoint x="-871" y="890" as="sourcePoint" />
            <mxPoint x="-821" y="840" as="targetPoint" />
          </mxGeometry>
        </mxCell>
        <mxCell id="7DsPn4_nwZbXOxPFbN1_-197" value="" style="endArrow=classic;html=1;rounded=0;exitX=0.5;exitY=0;exitDx=0;exitDy=0;entryX=0.5;entryY=1;entryDx=0;entryDy=0;" edge="1" source="7DsPn4_nwZbXOxPFbN1_-194" target="7DsPn4_nwZbXOxPFbN1_-215" parent="1">
          <mxGeometry width="50" height="50" relative="1" as="geometry">
            <mxPoint x="-751" y="780" as="sourcePoint" />
            <mxPoint x="-792.5" y="760" as="targetPoint" />
          </mxGeometry>
        </mxCell>
        <mxCell id="7DsPn4_nwZbXOxPFbN1_-198" value="" style="endArrow=none;dashed=1;html=1;rounded=0;" edge="1" parent="1">
          <mxGeometry width="50" height="50" relative="1" as="geometry">
            <mxPoint x="-861" y="780" as="sourcePoint" />
            <mxPoint x="-651" y="790" as="targetPoint" />
          </mxGeometry>
        </mxCell>
        <mxCell id="7DsPn4_nwZbXOxPFbN1_-199" value="failure" style="text;html=1;align=center;verticalAlign=middle;whiteSpace=wrap;rounded=0;rotation=15;" vertex="1" parent="1">
          <mxGeometry x="-871" y="762.5" width="40" height="15" as="geometry" />
        </mxCell>
        <mxCell id="7DsPn4_nwZbXOxPFbN1_-200" value="" style="endArrow=none;dashed=1;html=1;rounded=0;" edge="1" parent="1">
          <mxGeometry width="50" height="50" relative="1" as="geometry">
            <mxPoint x="-851" y="860" as="sourcePoint" />
            <mxPoint x="-660" y="800" as="targetPoint" />
          </mxGeometry>
        </mxCell>
        <mxCell id="7DsPn4_nwZbXOxPFbN1_-201" value="start" style="text;html=1;align=center;verticalAlign=middle;whiteSpace=wrap;rounded=0;rotation=-20;" vertex="1" parent="1">
          <mxGeometry x="-871" y="842.5" width="51" height="10" as="geometry" />
        </mxCell>
        <mxCell id="7DsPn4_nwZbXOxPFbN1_-204" value="" style="endArrow=none;dashed=1;html=1;rounded=0;" edge="1" parent="1">
          <mxGeometry width="50" height="50" relative="1" as="geometry">
            <mxPoint x="-860" y="750" as="sourcePoint" />
            <mxPoint x="-670" y="710" as="targetPoint" />
          </mxGeometry>
        </mxCell>
        <mxCell id="7DsPn4_nwZbXOxPFbN1_-206" value="committed" style="text;html=1;align=center;verticalAlign=middle;whiteSpace=wrap;rounded=0;rotation=-15;" vertex="1" parent="1">
          <mxGeometry x="-875.5" y="722.5" width="60" height="20" as="geometry" />
        </mxCell>
        <mxCell id="7DsPn4_nwZbXOxPFbN1_-207" value="" style="ellipse;whiteSpace=wrap;html=1;aspect=fixed;" vertex="1" parent="1">
          <mxGeometry x="-680" y="808.5" width="20" height="20" as="geometry" />
        </mxCell>
        <mxCell id="7DsPn4_nwZbXOxPFbN1_-208" value="" style="endArrow=classic;html=1;rounded=0;exitX=1;exitY=0;exitDx=0;exitDy=0;entryX=0.5;entryY=1;entryDx=0;entryDy=0;" edge="1" source="7DsPn4_nwZbXOxPFbN1_-192" target="7DsPn4_nwZbXOxPFbN1_-207" parent="1">
          <mxGeometry width="50" height="50" relative="1" as="geometry">
            <mxPoint x="-660" y="810" as="sourcePoint" />
            <mxPoint x="-677" y="826" as="targetPoint" />
          </mxGeometry>
        </mxCell>
        <mxCell id="7DsPn4_nwZbXOxPFbN1_-209" value="request2=hash2" style="text;html=1;align=center;verticalAlign=middle;whiteSpace=wrap;rounded=0;" vertex="1" parent="1">
          <mxGeometry x="-650" y="813.5" width="50" height="15" as="geometry" />
        </mxCell>
        <mxCell id="7DsPn4_nwZbXOxPFbN1_-210" value="lock" style="text;html=1;align=center;verticalAlign=middle;whiteSpace=wrap;rounded=0;" vertex="1" parent="1">
          <mxGeometry x="-842.5" y="804" width="40" height="12" as="geometry" />
        </mxCell>
        <mxCell id="7DsPn4_nwZbXOxPFbN1_-212" value="" style="endArrow=classic;html=1;rounded=0;exitX=0.5;exitY=0;exitDx=0;exitDy=0;" edge="1" source="7DsPn4_nwZbXOxPFbN1_-215" parent="1">
          <mxGeometry width="50" height="50" relative="1" as="geometry">
            <mxPoint x="-792" y="740" as="sourcePoint" />
            <mxPoint x="-793" y="670" as="targetPoint" />
          </mxGeometry>
        </mxCell>
        <mxCell id="7DsPn4_nwZbXOxPFbN1_-214" value="unlock" style="text;html=1;align=center;verticalAlign=middle;whiteSpace=wrap;rounded=0;" vertex="1" parent="1">
          <mxGeometry x="-770" y="692.5" width="40" height="15" as="geometry" />
        </mxCell>
        <mxCell id="7DsPn4_nwZbXOxPFbN1_-215" value="" style="ellipse;whiteSpace=wrap;html=1;aspect=fixed;" vertex="1" parent="1">
          <mxGeometry x="-802.5" y="693" width="20" height="20" as="geometry" />
        </mxCell>
        <mxCell id="7DsPn4_nwZbXOxPFbN1_-216" value="" style="ellipse;whiteSpace=wrap;html=1;aspect=fixed;" vertex="1" parent="1">
          <mxGeometry x="-680" y="740" width="20" height="20" as="geometry" />
        </mxCell>
        <mxCell id="7DsPn4_nwZbXOxPFbN1_-217" value="" style="endArrow=classic;html=1;rounded=0;exitX=0.5;exitY=0;exitDx=0;exitDy=0;entryX=0.5;entryY=1;entryDx=0;entryDy=0;" edge="1" parent="1" source="7DsPn4_nwZbXOxPFbN1_-207" target="7DsPn4_nwZbXOxPFbN1_-216">
          <mxGeometry width="50" height="50" relative="1" as="geometry">
            <mxPoint x="-680" y="800" as="sourcePoint" />
            <mxPoint x="-630" y="750" as="targetPoint" />
          </mxGeometry>
        </mxCell>
        <mxCell id="7DsPn4_nwZbXOxPFbN1_-218" value="status=failed&lt;div&gt;request=hash1&lt;/div&gt;" style="text;html=1;align=center;verticalAlign=middle;whiteSpace=wrap;rounded=0;" vertex="1" parent="1">
          <mxGeometry x="-660" y="740" width="80" height="21.25" as="geometry" />
        </mxCell>
      </root>
    </mxGraphModel>
  </diagram>
</mxfile>
